<svg id="Layer_1" data-name="Layer 1" xmlns="http://www.w3.org/2000/svg" viewBox="0 0 1559.27 698.68"><defs><style>.cls-1{fill:#fff;}</style></defs><title>unreal</title><path class="cls-1" d="M1807.88,1111.89H-241.2V-470.82H1807.88ZM780.24,45.51H64.8c-.73,0-1.42.11-2.16.17a1.63,1.63,0,0,0-1.31,1.48c0,1.82-.11,3.64-.11,5.46v62.8q0,264.89-.06,529.75c0,2,0,4,.06,6a4,4,0,0,0,.34,1.6,1.35,1.35,0,0,0,.74.73,19.92,19.92,0,0,0,3.24.4h50.81a14.46,14.46,0,0,0,3.81-.34,19.41,19.41,0,0,1,5.4-.51H516.05c2.16,0,4.38-.06,6.54-.06a1.77,1.77,0,0,0,1.82-1.65c.06-.91.11-1.82.11-2.73V599.49c0-.91-.11-1.82-.17-2.73a1.75,1.75,0,0,0-1.48-1.37c-2.16,0-4.38-.11-6.54-.11h-391c-4.26,0-4.6,0-4.6-4.55V113.38c0-2,0-4,0-6,.06-2.21.63-2.73,3-2.78,2.16-.06,4.38,0,6.54,0h1303c7.4,0,6.71-.69,6.71,6.71V473.88c0,1.48,0,2.9,0,4.38s-.74,2.11-1.94,2.11c-1.65.05-3.3.05-4.89.05H1316.87c-1.48,0-2.9,0-4.38-.05-2-.06-2.67-.63-2.73-2.51s-.06-4-.06-6q.09-107.34.29-214.64.09-37.38.17-74.81V169.3c0-2.28-.68-2.9-2.9-3-.91-.05-1.82-.05-2.73-.05-15.82,0-31.69-.06-47.5-.06-1.26,0-2.56,0-3.82.06a2.08,2.08,0,0,0-2.1,2c-.06,1.82-.06,3.64-.06,5.46q-.16,121.26-.34,242.47c-.06,22.41,0,44.77-.45,67.18-.35,17.47-.12,34.93-.12,52.45,0,.91.12,1.82.17,2.73a1.85,1.85,0,0,0,1.48,1.37q3,.17,6,.17h155.08c13.66,0,27.31.11,41,.11,12.92,0,25.83.12,38.74-.22,7.23-.18,6.66.45,6.72-7q.08-31.39,0-62.8V68.83c0-7.28-.11-14.56-.17-21.84a1.75,1.75,0,0,0-1.7-1.71c-3.64,0-7.28.11-10.93.11Q1133.32,45.57,780.24,45.51ZM521.57,538.05a9.79,9.79,0,0,0,4.26.46c17,0,33.85,0,50.8.11.91,0,1.82,0,2.73-.06,1.48-.11,2.28-.4,2.39-2.27.06-1.25.06-2.56.06-3.81q.16-54.62.29-109.17.17-78.94.22-157.81.09-47.79.06-95.58c0-5-.06-5.06-5.23-5.06-14.4-.06-28.73-.06-43.13-.06-.91,0-1.82.12-2.73.17a1.7,1.7,0,0,0-1.42,1.43c-.11,1.42-.17,2.9-.17,4.32q-.09,37.38-.17,74.81-.09,49.92-.17,99.89c0,9.85,0,19.69-.06,29.47,0,1.82-.17,3.64-.28,5.41a.68.68,0,0,1-.29.45c-.28-.11-.74-.17-.85-.4-.45-1.36-.91-2.78-1.25-4.15Q511,318,495.45,259.75q-9.21-34.56-18.48-69.06c-2.05-7.74-4.1-15.48-6.21-23.21-.68-2.56-1.36-2.68-3.41-2.73-1.08-.06-2.16,0-3.3,0H402.33c-1.48,0-2.9.05-4.38.11a1.8,1.8,0,0,0-1.82,1.65c-.12,2.9-.23,5.8-.23,8.7-.06,17.87-.12,35.67-.17,53.54q-.09,71.25-.23,142.5-.09,75.36-.11,150.7c0,4-.06,8-.06,12a22.9,22.9,0,0,0,.17,2.74,1.75,1.75,0,0,0,1.37,1.47c1.08.12,2.16.17,3.24.23q21.84.09,43.69.06c1.08,0,2.16-.12,3.24-.17a1.77,1.77,0,0,0,1.37-1.48c.11-1.82.17-3.64.17-5.46q.17-74.5.34-149,.09-51.29.17-102.63c0-1.48.06-2.9.11-4.38a.61.61,0,0,1,.23-.4c.46-.11.68.06.85.51.35,1,.69,2.05,1,3.13q9.74,36.11,19.4,72.2L505.81,482c4.61,17.24,9.27,34.42,13.88,51.65C520.26,535,520.48,536.69,521.57,538.05Zm241.2-181.36c.8-1.59,2.56-1.94,3.87-2.73a60.58,60.58,0,0,0,23.73-25.72,74.65,74.65,0,0,0,5-13.25,116.87,116.87,0,0,0,4.15-30.72c.18-11.66.06-23.33.06-34.93a134.87,134.87,0,0,0-2.27-24.41,81.41,81.41,0,0,0-6.6-20.76A60,60,0,0,0,763.57,176a81.49,81.49,0,0,0-10.52-4.49,104.71,104.71,0,0,0-26.17-5.18c-5.46-.4-10.93-.57-16.39-.63-14.73-.11-29.46-.11-44.26-.11-11.49,0-22.92-.06-34.41-.06H628c-3.75.06-4.15.4-4.21,4v3.3q-.16,114.09-.34,228.24-.08,36-.17,72.08c0,11.26-.11,22.59-.17,33.85-.05,8.93-.05,17.86-.05,26.74a29.3,29.3,0,0,0,.17,3.24,1.84,1.84,0,0,0,1.82,1.65c1.08.06,2.16.11,3.3.11q24.57.09,49.15.12c5,0,5.06-.06,5.06-5.24q.09-27.3.06-54.61.07-42.33.11-84.65c0-1.82.06-3.64.17-5.46a1.62,1.62,0,0,1,1.42-1.42c1.09-.06,2.17-.17,3.25-.17,4.89,0,9.84,0,14.73.05,2.56.06,5.12.12,7.62.34A38.35,38.35,0,0,1,720,389.91a26.13,26.13,0,0,1,14.57,12.52,45.89,45.89,0,0,1,3,7.05,69.88,69.88,0,0,1,2.39,11.78,131.15,131.15,0,0,1,.73,16.33c0,19.68-.11,39.31,0,59,0,8.19-.06,16.38,1,24.52a75.15,75.15,0,0,0,2.73,13.37c1.47,4.66,1.13,4.72,6.42,4.78l48.59.17c1.48,0,2.9-.06,4.38-.12a1.67,1.67,0,0,0,1-.34,1.48,1.48,0,0,0,.57-.85,18.42,18.42,0,0,0-.8-3.13,70.45,70.45,0,0,1-3.64-15.93,143,143,0,0,1-1.13-18.55c0-4.72,0-9.44,0-14.22V430a135.43,135.43,0,0,0-2.39-24.41,84.69,84.69,0,0,0-6.38-20.25,57.25,57.25,0,0,0-14.67-19.51,60.4,60.4,0,0,0-10.36-7C764.82,358.17,763.51,357.88,762.77,356.69ZM357.16,315.9h.22V248.2c0-20.76.06-41.47.06-62.23V168.5a10.29,10.29,0,0,0-.34-2.67,1.18,1.18,0,0,0-.74-.74,36.87,36.87,0,0,0-4.32-.29q-22.11-.08-44.21-.05c-6.6,0-6.2-.35-6.2,6.25q-.08,36.87-.17,73.73-.16,77.24-.28,154.51c-.06,16.95-.06,33.85-.17,50.8,0,4-.29,8-.57,12a36.63,36.63,0,0,1-3.19,12.06,23.1,23.1,0,0,1-15.7,13.31,34,34,0,0,1-8.65,1.14,43.79,43.79,0,0,1-12.45-1.14,23.25,23.25,0,0,1-15.71-13.26,40.35,40.35,0,0,1-3.41-14.22c-.23-3.47-.28-6.88-.28-10.35,0-16.73,0-33.51.11-50.23q.09-56.76.11-113.55.09-51.88.17-103.71c0-4.9,0-9.84-.05-14.74a2.08,2.08,0,0,0-2.28-2.39c-.91-.05-1.82-.05-2.73-.05H187.23a29.3,29.3,0,0,0-3.24.17,1.68,1.68,0,0,0-1.48,1.31c-.06,1.65-.17,3.24-.17,4.89q-.18,46.16-.29,92.27c-.05,17.64-.17,35.33-.22,53q-.18,66.64-.23,133.23a142.21,142.21,0,0,0,3.18,29.81,90.23,90.23,0,0,0,8.88,24.58A69.41,69.41,0,0,0,224.55,534a73.76,73.76,0,0,0,15.3,5.69c8.14,2,16.33,3.53,24.81,3.36,4.55-.12,9.1,0,13.65-.06,1.08,0,2.16,0,3.3-.11a110.75,110.75,0,0,0,21.9-4.5c20.71-6.77,35.56-20,44.43-40a100.54,100.54,0,0,0,7.11-24,159.42,159.42,0,0,0,2.16-26.62C357.21,403.62,357.16,359.76,357.16,315.9ZM1121.8,166.4v-.12h-38.74c-4.32,0-4.44.29-5.12,4.5q-4.7,28.83-9.39,57.62c-2.33,14.57-4.61,29.07-7,43.64-2.78,17.24-5.63,34.47-8.41,51.71-2.34,14.56-4.67,29.07-7.06,43.63-2.27,14.17-4.66,28.33-6.94,42.56q-3.75,22.86-7.39,45.79c-2,12.57-4,25.15-6.09,37.72-1.25,7.74-2.56,15.42-3.81,23.15-1.14,7-2.28,14-3.36,21a1.51,1.51,0,0,0,1.42,1.87c.91.06,1.82.12,2.73.12,15.31,0,30.55,0,45.86,0a20.85,20.85,0,0,0,2.73-.17,1.73,1.73,0,0,0,1.47-1.36c.46-2.85.92-5.75,1.37-8.59,2.16-14.4,4.38-28.79,6.54-43.18.63-4,1.25-7.91,1.88-11.83.28-1.71,1-2.28,2.5-2.34,1.25-.05,2.56-.05,3.81-.05q23.22,0,46.43.11c4.55,0,9.1.06,13.65.06,1.25,0,2.56,0,3.81.17a2.16,2.16,0,0,1,1.82,1.76c.06.17.06.34.12.51,1.93,13.14,3.81,26.29,5.74,39.43,1.08,7.39,2.16,14.73,3.3,22.13a19,19,0,0,0,.46,2.1,2.41,2.41,0,0,0,1.59,1.37l4.38.17,37.15.17c4.55,0,9.1,0,13.65-.06,2.67,0,2.79-1,2.62-3-.06-.91-.29-1.82-.4-2.68-1.25-7.91-2.56-15.81-3.81-23.72q-1.87-12.12-3.81-24.24c-2.34-14.73-4.73-29.46-7.06-44.2-2.33-14.9-4.61-29.81-7-44.77s-4.77-29.81-7.16-44.71c-2.39-15.08-4.67-30.21-7.06-45.29-2.33-14.9-4.78-29.81-7.17-44.71s-4.6-29.81-6.94-44.77q-3.75-23.73-7.51-47.45a18.86,18.86,0,0,0-.62-2.62,1.77,1.77,0,0,0-1.59-1.25c-1.83-.11-3.65-.17-5.47-.17C1145.81,166.4,1133.8,166.4,1121.8,166.4ZM837.92,352.25h-.17q-.07,46.94-.22,93.93c0,9.44-.06,18.94-.12,28.38,0,19.86-.17,39.71-.22,59.51,0,1.08.11,2.16.17,3.24a1.73,1.73,0,0,0,1.42,1.42c2.16.12,4.38.23,6.54.29q72.87.16,145.81.4h3.3a15.44,15.44,0,0,0,1.65-.12,1.69,1.69,0,0,0,1.42-1.42c.11-1.25.17-2.56.23-3.81,0-14.39,0-28.79,0-43.12,0-5.52.12-5.64-5.86-5.64-12.4,0-24.74-.11-37.15-.11-17.46-.06-34.93-.06-52.45-.11-5.86,0-5.63.22-5.63-5.69q.09-48.64.11-97.22c0-1.26.06-2.56.12-3.82a1.64,1.64,0,0,1,1.36-1.42c1.82-.06,3.64-.17,5.47-.17,22,0,44,.06,66.1.06,1.82,0,3.64,0,5.46-.06a1.8,1.8,0,0,0,1.82-1.65c.12-1.65.17-3.24.17-4.89.06-12.74.06-25.49.12-38.23,0-2,.05-4,0-6-.06-2.22-.74-3-2.9-3-1.48-.05-2.91-.05-4.39-.05-19.28-.06-38.57-.06-57.91-.12-4,0-8,0-12,0-2.79-.06-3.24-.52-3.3-3.08v-3.3q.09-45.3.17-90.62c0-6.6-.34-6.09,6.37-6q39.6,0,79.19.11h11.49a20.85,20.85,0,0,0,2.73-.17,1.75,1.75,0,0,0,1.48-1.36c.06-.74.17-1.42.17-2.16q.09-23,.06-45.86c0-.91-.11-1.82-.17-2.73a1.84,1.84,0,0,0-1.48-1.42c-2.16-.11-4.38-.23-6.54-.23-13.31,0-26.57,0-39.88,0q-34.65-.09-69.35-.12c-12.17,0-24.4-.05-36.58-.05-1.65,0-3.24.11-4.89.22a1.82,1.82,0,0,0-1.48,1.43c-.06,1.82-.17,3.64-.17,5.46Q837.86,262.27,837.92,352.25Zm427.64,300.83h227.67c6.31-.06,6.2.51,6.14-6.37,0-5.46-.28-10.92-.28-16.39,0-6.94.23-13.82.28-20.76.06-12.91,0-25.83,0-38.74,0-.74,0-1.48,0-2.16a1.4,1.4,0,0,0-1.83-1.37c-1.65.74-3.29,1.48-4.94,2.28l-47.91,22.53c-6.71,3.12-6.71,3.12-14.1,3.12H1035.73c-.74,0-1.48.06-2.16.12a1.69,1.69,0,0,0-1.43,1.42c-.11,1.42-.17,2.9-.17,4.32v45.86c0,1.25,0,2.56.06,3.81a1.94,1.94,0,0,0,2,2.1c2,.06,4,.06,6,.06Q1152.78,653.17,1265.56,653.08ZM811.07,606.26a29,29,0,0,0-7-.11,1.25,1.25,0,0,0-1.08,1,8.52,8.52,0,0,0-.23,2.16V635.5a9,9,0,0,0,.17,2.16c.11.46.57,1.08,1,1.14a16.79,16.79,0,0,0,3.75,0,1.82,1.82,0,0,0,1-1.14,20.76,20.76,0,0,0,.22-3.24V621.34a21,21,0,0,1,.23-2.68c0-.11.29-.23.46-.28a.74.74,0,0,1,.51,0,9.33,9.33,0,0,1,1.48,1.53c3.41,4.67,6.83,9.39,10.3,14.11,1.19,1.59,2.38,3.19,3.47,4.67a9.64,9.64,0,0,0,5.51.17c.91-1.14.74-2.45.74-3.7V610.07c0-.74,0-1.48-.11-2.16a1.67,1.67,0,0,0-1.65-1.76,15.17,15.17,0,0,0-1.65-.06c-1.76,0-2.45.57-2.45,2.1-.05,3.47-.05,6.89-.05,10.36,0,1.82-.06,3.64-.17,5.46,0,.23-.46.45-.74.63a.62.62,0,0,1-.51-.18c-.92-1.13-1.83-2.21-2.68-3.41C818.13,616.16,814.66,611.32,811.07,606.26ZM726.93,623.1v12a14.8,14.8,0,0,0,.23,2.73,1.26,1.26,0,0,0,1.08,1.08,29.41,29.41,0,0,0,3.25.23h16.38c.91,0,1.82,0,2.73,0a1.8,1.8,0,0,0,1.76-1.71c.35-3.59-.17-4.1-3.81-4.15-3.81-.06-7.62,0-11.49-.06a9,9,0,0,1-2.1-.34,1.28,1.28,0,0,1-.69-.74,11.62,11.62,0,0,1-.11-4.84,1.4,1.4,0,0,1,1.08-1.08A14.73,14.73,0,0,1,738,626c2.73-.06,5.46,0,8.19-.06a5.22,5.22,0,0,0,1.59-.28,1.25,1.25,0,0,0,.69-.74,6.15,6.15,0,0,0-.06-4.27,1.37,1.37,0,0,0-.74-.74,5,5,0,0,0-1.59-.34c-2.9-.05-5.8-.05-8.76-.05-3.3,0-3.42-.57-3.42-3.47a21,21,0,0,1,.23-2.68,1.34,1.34,0,0,1,1.08-1.08,32.06,32.06,0,0,1,3.25-.23c3.29,0,6.54,0,9.84,0,1.7-.06,2.22-.63,2.27-2.34,0-.74-.11-1.42-.11-2.16a1.22,1.22,0,0,0-1-1.14,7.25,7.25,0,0,0-1.59-.22h-18a3.86,3.86,0,0,0-1.59.22,1.88,1.88,0,0,0-1.14,1,10.72,10.72,0,0,0-.28,2.67C726.93,614.34,726.93,618.72,726.93,623.1Zm236.26,6.26c-1.53-.23-2.78-.46-4-.69a1.77,1.77,0,0,0-.51,0,1.41,1.41,0,0,0-1.53,1.7,10.15,10.15,0,0,0,6.43,8.14,18.27,18.27,0,0,0,14.84,0,9.43,9.43,0,0,0,6-9.5,8.3,8.3,0,0,0-3.76-6.88,13.57,13.57,0,0,0-4.49-1.94c-2.45-.62-4.89-1.31-7.34-2a9.6,9.6,0,0,1-2.45-1.14,2.62,2.62,0,0,1-.79-3.81,4.71,4.71,0,0,1,1.53-1.48,8.33,8.33,0,0,1,5.86-.34,5.38,5.38,0,0,1,3,2.22,2.76,2.76,0,0,0,1.13,1.14,10.77,10.77,0,0,0,5.3.85c.28-.06.56-.46.68-.74a3.87,3.87,0,0,0,0-1.59,9.22,9.22,0,0,0-6.49-6.77,20.68,20.68,0,0,0-5.86-1,14.35,14.35,0,0,0-8.76,2.51c-5.12,3.52-5.63,12,1.2,15.13a35.19,35.19,0,0,0,4.61,1.65c1.76.51,3.52.85,5.23,1.42a13.15,13.15,0,0,1,3.36,1.76,2.93,2.93,0,0,1,.39,4.33,3.37,3.37,0,0,1-1.19,1,14.06,14.06,0,0,1-3.64,1c-3.3.22-6.15-.57-7.74-3.82C963.93,630.15,963.65,629.93,963.19,629.36Zm-386.44-6.94h0v13c0,3,.28,3.59,3.3,3.59h18c.74,0,1.48-.06,2.17-.06a1.72,1.72,0,0,0,1.76-1.65,20.74,20.74,0,0,0-.06-2.73,1.62,1.62,0,0,0-1.42-1.36c-1.25-.06-2.56-.17-3.81-.17-3.24,0-6.54,0-9.79-.06a9.43,9.43,0,0,1-2.16-.29,1.29,1.29,0,0,1-.79-.68,9,9,0,0,1,0-5.35,1,1,0,0,1,.79-.62c1.65-.12,3.24-.23,4.89-.23,2.56-.06,5.07-.06,7.63-.23a1.64,1.64,0,0,0,1.14-1,7.39,7.39,0,0,0-.06-4.27,1.56,1.56,0,0,0-.74-.74,9,9,0,0,0-2.16-.28c-2.9-.06-5.81,0-8.71-.06a7.37,7.37,0,0,1-2.16-.34,1,1,0,0,1-.68-.74c-.06-1.6-.11-3.25-.06-4.9,0-.62.8-1.25,1.54-1.3l3.24-.17c2.9,0,5.8,0,8.7-.06a9,9,0,0,0,2.17-.29,1.1,1.1,0,0,0,.79-.62,5,5,0,0,0,0-4.15,1.42,1.42,0,0,0-.86-.63,9,9,0,0,0-2.16-.23h-16.9a6.8,6.8,0,0,0-2.16.23,1.76,1.76,0,0,0-1.13,1,10.49,10.49,0,0,0-.23,2.67Zm91.53,16.32c.46-1.08.91-2,1.25-3.07,2.85-8.65,5.69-17.24,8.54-25.88.22-.69.34-1.42.51-2.11.11-.51-.34-1.25-.74-1.25a46.93,46.93,0,0,0-4.89-.06c-.46,0-1,.52-1.25.91a7.8,7.8,0,0,0-.86,2c-1.19,3.81-2.39,7.62-3.64,11.43-.74,2.22-1.53,4.44-2.22,6.6a1.45,1.45,0,0,1-1.65-1.2c-1.53-4.83-3-9.72-4.55-14.56-.45-1.36-.85-2.79-1.42-4.1a1.93,1.93,0,0,0-1.2-1,10.59,10.59,0,0,0-5.8.23,2.92,2.92,0,0,0-.05,1.19c3.24,10,6.48,20.08,9.72,30.1.12.28.46.51.74.85,1.71.63,3.53.29,5.35.29A17.14,17.14,0,0,0,668.28,638.74Zm223.23-13.08h0V636a6.71,6.71,0,0,0,.35,2.11,1,1,0,0,0,.73.68,28,28,0,0,0,3.76.23c1.65,0,2.33-.68,2.39-2.28.06-1.25.06-2.56.06-3.81V615.53c0-3,.56-3.3,3.58-3.35,1.25,0,2.56,0,3.81-.06a3.69,3.69,0,0,0,1.59-.23,1.86,1.86,0,0,0,1-1.08,27.62,27.62,0,0,0-.06-3.75c0-.23-.45-.57-.74-.69a5.13,5.13,0,0,0-1.59-.22H883.61a2.4,2.4,0,0,0-1.08.17,1.42,1.42,0,0,0-.86.62,5.93,5.93,0,0,0,0,4.21,1.34,1.34,0,0,0,.79.69,22.14,22.14,0,0,0,2.68.28c1.65.11,3.24.11,4.89.23a1.62,1.62,0,0,1,1.42,1.36c.06.91.11,1.82.11,2.73Z"/><path d="M780.24,45.51H1486.4c3.64,0,7.28-.06,10.92-.12A1.72,1.72,0,0,1,1499,47.1c.06,7.28.17,14.56.17,21.84V470.35q0,31.41-.06,62.81c0,7.39.52,6.71-6.71,6.94-12.91.34-25.83.23-38.74.23-13.65,0-27.31-.12-41-.12H1257.65c-2,0-4-.11-6-.17a1.82,1.82,0,0,1-1.48-1.36c-.06-.91-.17-1.82-.17-2.73,0-17.47-.23-34.93.11-52.46.46-22.41.4-44.77.46-67.18q.26-121.26.34-242.46c0-1.82,0-3.64.06-5.46a2.12,2.12,0,0,1,2.1-2c1.25-.06,2.56-.06,3.81-.06,15.82,0,31.69.06,47.5.06.91,0,1.83,0,2.74.06,2.21.11,2.9.73,2.9,3,0,4.38,0,8.76,0,13.08-.06,24.92-.17,49.9-.17,74.81q-.18,107.35-.29,214.65c0,2,0,4,.06,6,.06,1.87.68,2.44,2.73,2.5,1.48.06,2.9.06,4.38.06H1433.1c1.65,0,3.3,0,4.89-.06a1.87,1.87,0,0,0,1.93-2.11c.06-1.48.06-2.9.06-4.38V111.38c0-7.45.68-6.71-6.71-6.71H123.69c-2.39.06-3,.57-3,2.79-.06,2-.06,4-.06,6V590.84c0,4.55.35,4.55,4.61,4.55h391c2.16,0,4.38.06,6.54.12a1.64,1.64,0,0,1,1.48,1.36c.06.91.17,1.82.17,2.73v49.16c0,.91-.06,1.82-.11,2.73a1.77,1.77,0,0,1-1.82,1.65c-2.16.05-4.38.05-6.55.05H125.45a19.3,19.3,0,0,0-5.41.51,13.64,13.64,0,0,1-3.81.35H65.43a15.61,15.61,0,0,1-3.24-.4,1.18,1.18,0,0,1-.74-.74,6.92,6.92,0,0,1-.34-1.59c-.06-2-.06-4-.06-6q0-264.88.06-529.75V52.73c0-1.82,0-3.64.11-5.46a1.64,1.64,0,0,1,1.31-1.48c.74-.06,1.42-.17,2.16-.17h6.54Q425.88,45.46,780.24,45.51Z"/><path d="M521.57,538.05a10.81,10.81,0,0,1-1.77-4.55c-4.61-17.24-9.27-34.42-13.88-51.66L470.76,350.6q-9.63-36.09-19.4-72.19c-.28-1-.68-2.05-1-3.13a.63.63,0,0,0-.86-.51.49.49,0,0,0-.22.4c-.06,1.48-.12,2.9-.12,4.38q-.07,51.29-.17,102.63-.16,74.49-.34,149c0,1.82-.11,3.65-.17,5.47a1.75,1.75,0,0,1-1.36,1.47c-1.09.06-2.17.18-3.25.18-14.56,0-29.12-.06-43.69-.06a32.07,32.07,0,0,1-3.24-.23,1.83,1.83,0,0,1-1.37-1.48c-.05-.91-.17-1.82-.17-2.73,0-4,.06-8,.06-12q.09-75.36.11-150.7.09-71.25.23-142.51c.06-17.86.12-35.67.17-53.53,0-2.9.12-5.8.23-8.7a1.81,1.81,0,0,1,1.82-1.65c1.48-.06,2.9-.12,4.38-.12h65c2.05.12,2.74.23,3.42,2.73,2.1,7.74,4.15,15.48,6.2,23.21q9.21,34.56,18.49,69.07,15.62,58.28,31.17,116.45c.4,1.42.8,2.79,1.25,4.15.06.23.52.29.86.4a.74.74,0,0,0,.28-.46c.12-1.82.29-3.64.29-5.4.05-9.84.05-19.68.05-29.47q.09-49.92.17-99.9c.06-24.91.12-49.89.17-74.8,0-1.43.12-2.91.18-4.33a1.82,1.82,0,0,1,1.42-1.42c.91-.06,1.82-.17,2.73-.17,14.39,0,28.73,0,43.12.06,5.18,0,5.23.05,5.23,5.06q0,47.79,0,95.57-.09,78.93-.23,157.81c-.06,36.41-.23,72.82-.29,109.17,0,1.25,0,2.56,0,3.81-.12,1.88-.91,2.22-2.39,2.28-.91.06-1.82.06-2.73.06-17,0-33.85-.06-50.8-.12C524.41,538.45,522.93,538.68,521.57,538.05Z"/><path d="M762.77,356.69c.74,1.19,2.05,1.53,3.13,2.1a58.15,58.15,0,0,1,10.36,7,57.05,57.05,0,0,1,14.67,19.51,84.62,84.62,0,0,1,6.38,20.26A135.23,135.23,0,0,1,799.7,430v56.26c0,4.73,0,9.45,0,14.23A144.17,144.17,0,0,0,800.83,519a69.72,69.72,0,0,0,3.64,15.93,20.27,20.27,0,0,1,.8,3.13c.06.28-.28.68-.57.85a1.68,1.68,0,0,1-1,.35c-1.48,0-2.9.11-4.38.11l-48.59-.17c-5.29,0-5-.12-6.42-4.78A74.08,74.08,0,0,1,741.56,521c-1-8.13-1-16.33-1-24.52-.06-19.68,0-39.31.06-59a143.4,143.4,0,0,0-.74-16.33,65.46,65.46,0,0,0-2.39-11.78,36.72,36.72,0,0,0-3-7.05A26.13,26.13,0,0,0,720,389.85a36.12,36.12,0,0,0-10.07-2.21c-2.56-.17-5.06-.29-7.62-.35-4.89-.05-9.84-.05-14.73-.05-1.08,0-2.16.11-3.25.17a1.7,1.7,0,0,0-1.42,1.42c0,1.82-.11,3.64-.17,5.46q-.08,42.33-.11,84.65c0,18.21-.06,36.41-.06,54.62,0,5.23-.06,5.29-5.06,5.23q-24.59,0-49.15-.11c-1.08,0-2.17-.06-3.3-.12a1.88,1.88,0,0,1-1.82-1.65c-.06-1.08-.17-2.16-.17-3.24,0-8.93.05-17.86.05-26.74.06-11.26.17-22.58.17-33.85.06-24,.12-48.07.17-72.08q.18-114.09.35-228.23v-3.3c.05-3.53.39-3.87,4.2-4h3.82c11.49,0,22.92,0,34.41.06,14.74.06,29.47,0,44.26.12,5.47.05,10.93.17,16.39.62a105.16,105.16,0,0,1,26.17,5.18A75.43,75.43,0,0,1,763.57,176a59.83,59.83,0,0,1,27.14,28.16,82.59,82.59,0,0,1,6.6,20.77,130,130,0,0,1,2.27,24.4c0,11.66.06,23.33-.06,34.93a116.2,116.2,0,0,1-4.15,30.72,85.77,85.77,0,0,1-5,13.26,60.27,60.27,0,0,1-23.73,25.71C765.33,354.7,763.63,355.1,762.77,356.69ZM683,276.08h-.17v49.09c0,1.82,0,3.64,0,5.46a5.21,5.21,0,0,0,.23,1.6,1.37,1.37,0,0,0,.74.74,9,9,0,0,0,2.16.28c6.88.06,13.83.06,20.71,0,2,0,4-.17,6-.34a34.92,34.92,0,0,0,9-2.11,24.7,24.7,0,0,0,11.95-9.1,28.65,28.65,0,0,0,3.87-7.79,46.33,46.33,0,0,0,2.38-11.72c.23-3.64.46-7.28.46-10.92.06-9.45.06-18.89.06-28.39,0-2.73,0-5.46-.12-8.19a71.2,71.2,0,0,0-1.87-15.14,33.84,33.84,0,0,0-2.91-7.62,21.59,21.59,0,0,0-14-11.21,31.64,31.64,0,0,0-8.59-1.3c-9.1-.06-18.2-.06-27.25-.06a7.91,7.91,0,0,0-1.08.11,1.7,1.7,0,0,0-1.42,1.42c-.06,1.43-.17,2.91-.17,4.39C683,242.29,683,259.18,683,276.08Z"/><path d="M357.16,315.9V447.48A155.33,155.33,0,0,1,355,474.11a101.31,101.31,0,0,1-7.12,24c-8.87,19.92-23.78,33.23-44.43,40a110,110,0,0,1-21.9,4.49,29.79,29.79,0,0,1-3.3.12c-4.55,0-9.1-.06-13.65,0-8.48.17-16.67-1.31-24.8-3.35a74.2,74.2,0,0,1-15.31-5.69,69.43,69.43,0,0,1-30.89-29.87,90.21,90.21,0,0,1-8.87-24.58,141.55,141.55,0,0,1-3.19-29.81q.09-66.64.23-133.23c.06-17.63.17-35.33.23-53q.17-46.17.28-92.28c0-1.65.11-3.24.17-4.89a1.64,1.64,0,0,1,1.48-1.31c1.08-.05,2.16-.17,3.24-.17h49.15c.92,0,1.83,0,2.74.06,1.59.06,2.27.8,2.27,2.39.06,4.89.06,9.84.06,14.73q-.09,51.88-.17,103.71-.09,56.75-.12,113.55c0,16.73-.11,33.51-.11,50.23,0,3.47.06,6.94.28,10.36a40.83,40.83,0,0,0,3.42,14.22,23,23,0,0,0,15.7,13.25,41.47,41.47,0,0,0,12.46,1.14,33.83,33.83,0,0,0,8.64-1.14,23.09,23.09,0,0,0,15.71-13.31,34.11,34.11,0,0,0,3.18-12.06c.29-4,.51-8,.57-12,.11-16.95.11-33.85.17-50.8q.18-77.23.29-154.51.07-36.87.17-73.73c0-6.6-.4-6.26,6.2-6.26q22.1,0,44.2.06a36.86,36.86,0,0,1,4.32.28,1.06,1.06,0,0,1,.74.74,14.46,14.46,0,0,1,.34,2.68v17.46c0,20.77-.05,41.47-.05,62.24v67.69C357.33,315.9,357.27,315.9,357.16,315.9Z"/><path d="M1121.8,166.4h36c1.82,0,3.64,0,5.46.17a1.74,1.74,0,0,1,1.59,1.25,13.76,13.76,0,0,1,.63,2.61c2.5,15.82,5.06,31.63,7.51,47.45,2.33,14.9,4.61,29.81,6.94,44.77s4.78,29.81,7.17,44.72c2.39,15.07,4.66,30.2,7.05,45.28,2.34,14.9,4.78,29.81,7.17,44.71s4.67,29.81,7,44.78c2.33,14.73,4.72,29.46,7.05,44.2,1.31,8.08,2.51,16.16,3.81,24.23,1.26,7.91,2.51,15.82,3.82,23.73a20.46,20.46,0,0,1,.39,2.67c.17,2,.06,3-2.61,3-4.55,0-9.11,0-13.66,0l-37.14-.17c-1.48,0-2.91-.11-4.39-.17a2.18,2.18,0,0,1-1.59-1.36c-.17-.69-.34-1.43-.45-2.11-1.08-7.39-2.22-14.73-3.3-22.13q-2.91-19.71-5.75-39.42a1.87,1.87,0,0,0-.11-.51,2.18,2.18,0,0,0-1.82-1.77l-3.81-.17c-4.56-.06-9.11-.06-13.66-.06-15.47-.05-30.95-.05-46.42-.11-1.25,0-2.56,0-3.81.06-1.54.05-2.22.68-2.5,2.33-.63,3.93-1.26,7.91-1.88,11.83q-3.33,21.6-6.54,43.18c-.46,2.9-.91,5.75-1.37,8.59a1.69,1.69,0,0,1-1.48,1.37c-.91.05-1.82.17-2.73.17-15.3,0-30.55-.06-45.85-.06-.91,0-1.82-.06-2.73-.11a1.52,1.52,0,0,1-1.42-1.88c1.13-7,2.22-14,3.35-21,1.25-7.74,2.56-15.42,3.81-23.16,2-12.57,4-25.14,6.09-37.71,2.45-15.25,4.89-30.55,7.4-45.8,2.27-14.16,4.66-28.33,6.94-42.55,2.39-14.57,4.66-29.07,7-43.64q4.18-25.85,8.42-51.71c2.33-14.56,4.61-29.07,7-43.63,3.13-19.23,6.26-38.4,9.39-57.63.68-4.27.79-4.49,5.12-4.49h38.74C1121.8,166.34,1121.8,166.4,1121.8,166.4ZM1118.44,421V421h2.17c7.28,0,14.56.06,21.84.06a10.32,10.32,0,0,0,2.67-.4,1,1,0,0,0,.63-.8,27.76,27.76,0,0,0-.23-3.75c-1-6.66-1.93-13.31-3-20-.79-5.58-1.65-11.15-2.44-16.73-1.31-9-2.68-18-4-27-1.2-8.08-2.39-16.21-3.59-24.29q-2-13.49-4-27c-.91-6.14-1.76-12.23-2.67-18.37-1.31-8.65-2.56-17.24-3.87-25.89-.85-5.74-1.76-11.49-2.62-17.23a.57.57,0,0,0-.28-.35c-.28.12-.74.23-.85.52a8.37,8.37,0,0,0-.57,2.1c-1,6.32-1.88,12.57-2.85,18.89q-2.9,18.86-5.8,37.72c-1.31,8.47-2.5,16.89-3.75,25.37-2.34,15.47-4.78,30.89-7.12,46.36-1.36,9-2.73,18-4,27-1.09,7.17-2.17,14.39-3.19,21.56a1.54,1.54,0,0,0,1.42,1.88c1.65.11,3.24.22,4.89.22C1104.28,421,1111.33,421,1118.44,421Z"/><path d="M837.92,352.25V172.6c0-1.82.12-3.64.18-5.46a1.91,1.91,0,0,1,1.47-1.43c1.65-.11,3.25-.22,4.9-.22,12.17,0,24.4,0,36.58,0,23.09.06,46.25.12,69.34.12,13.32,0,26.57,0,39.88.05,2.16,0,4.38.12,6.55.23a1.81,1.81,0,0,1,1.47,1.42c.06.91.17,1.82.17,2.73,0,15.31-.05,30.61-.05,45.86a14.29,14.29,0,0,1-.17,2.16,1.69,1.69,0,0,1-1.48,1.36c-.91.06-1.82.17-2.73.17H982.54q-39.6-.07-79.19-.11c-6.72,0-6.32-.57-6.38,6q-.08,45.32-.17,90.62v3.3c.06,2.56.52,3.08,3.3,3.08,4,.05,8,.05,12,.05,19.28.06,38.57.06,57.91.12,1.48,0,2.9,0,4.38,0,2.16.06,2.9.8,2.9,3v6c0,12.74,0,25.48-.11,38.23,0,1.65-.06,3.24-.17,4.89a1.81,1.81,0,0,1-1.82,1.65c-1.82.06-3.64.06-5.46.06-22,0-44-.06-66.11-.06-1.82,0-3.64.06-5.46.17a1.58,1.58,0,0,0-1.37,1.42c0,1.25-.11,2.56-.11,3.81q-.09,48.64-.11,97.23c0,5.91-.23,5.69,5.63,5.69,17.46.05,34.93.05,52.45.11,12.4.06,24.75.11,37.15.11,6,0,5.86.12,5.86,5.64,0,14.39-.06,28.78-.06,43.12,0,1.25-.11,2.56-.23,3.81a1.74,1.74,0,0,1-1.42,1.42,15.26,15.26,0,0,1-1.65.12H991q-72.87-.18-145.8-.4c-2.17,0-4.38-.17-6.55-.29a1.82,1.82,0,0,1-1.42-1.42,32,32,0,0,1-.17-3.24c.06-19.86.17-39.71.23-59.51.06-9.44.06-18.94.11-28.39q.09-46.92.23-93.92C837.81,352.25,837.87,352.25,837.92,352.25Z"/><path d="M1265.56,653.08H1040.05c-2,0-4,0-6-.06a1.94,1.94,0,0,1-2-2.1c-.06-1.25-.06-2.56-.06-3.81V601.25c0-1.48.12-2.9.17-4.32a1.69,1.69,0,0,1,1.43-1.42c.73-.06,1.42-.12,2.16-.12h394.81c7.39,0,7.39,0,14.1-3.12q24-11.26,47.91-22.53c1.65-.8,3.29-1.54,4.94-2.28.86-.4,1.77.29,1.83,1.37,0,.74,0,1.48,0,2.16v38.74c0,6.94-.28,13.82-.28,20.76,0,5.47.23,10.93.28,16.39.06,6.88.17,6.31-6.14,6.37h-2.16q-112.72-.25-225.51-.17Z"/><path d="M811.07,606.26c3.59,5,7.06,9.9,10.53,14.73.85,1.2,1.76,2.28,2.67,3.42.12.11.4.23.51.17.29-.17.69-.4.74-.63.12-1.82.12-3.64.17-5.46.06-3.47,0-6.88.06-10.35,0-1.54.68-2.11,2.45-2.11a15.17,15.17,0,0,1,1.65.06,1.65,1.65,0,0,1,1.65,1.76c0,.74.11,1.43.11,2.16V635.1c0,1.25.17,2.56-.74,3.7a9.67,9.67,0,0,1-5.52-.17c-1.08-1.48-2.33-3-3.47-4.67-3.41-4.66-6.82-9.38-10.3-14.1a11.8,11.8,0,0,0-1.47-1.54.77.77,0,0,0-.52,0,.94.94,0,0,0-.45.28,21.25,21.25,0,0,0-.23,2.68v13.08a21,21,0,0,1-.23,3.25,1.51,1.51,0,0,1-1,1.13,16.3,16.3,0,0,1-3.76,0c-.34,0-.85-.68-1-1.13a7.12,7.12,0,0,1-.17-2.17V609.28a9.14,9.14,0,0,1,.23-2.17,1.22,1.22,0,0,1,1.08-1A42.61,42.61,0,0,1,811.07,606.26Z"/><path d="M726.93,623.1V610a10.3,10.3,0,0,1,.29-2.68c.11-.4.68-.8,1.14-1a3.69,3.69,0,0,1,1.59-.23h18a3.62,3.62,0,0,1,1.6.23,1.28,1.28,0,0,1,1,1.14c0,.73.12,1.42.12,2.16,0,1.7-.57,2.33-2.28,2.33-3.3.06-6.54.06-9.84.06a20.76,20.76,0,0,0-3.24.22,1.26,1.26,0,0,0-1.08,1.08A21.09,21.09,0,0,0,734,616c0,2.9.11,3.47,3.41,3.47,2.9,0,5.81,0,8.76.06a4,4,0,0,1,1.6.34,1.88,1.88,0,0,1,.74.74,6.48,6.48,0,0,1,0,4.26,1.41,1.41,0,0,1-.68.74,4.92,4.92,0,0,1-1.59.29c-2.73.05-5.46,0-8.2.05a14.73,14.73,0,0,0-2.73.17,1.35,1.35,0,0,0-1.08,1.09,10,10,0,0,0,.12,4.83,1.41,1.41,0,0,0,.68.74,6.7,6.7,0,0,0,2.11.34c3.81.06,7.62,0,11.49.06,3.64.06,4.09.57,3.81,4.15a1.81,1.81,0,0,1-1.77,1.71c-.91.06-1.82.06-2.73.06H731.6a32.07,32.07,0,0,1-3.24-.23,1.26,1.26,0,0,1-1.08-1.08,14.44,14.44,0,0,1-.23-2.73C726.93,631.06,726.93,627.08,726.93,623.1Z"/><path d="M963.19,629.36a3.8,3.8,0,0,1,.86,1.14c1.59,3.29,4.49,4.09,7.73,3.81a14,14,0,0,0,3.65-1,3.37,3.37,0,0,0,1.19-1,2.91,2.91,0,0,0-.4-4.32,12.66,12.66,0,0,0-3.35-1.77c-1.71-.57-3.53-.91-5.24-1.42A35.72,35.72,0,0,1,963,623.1c-6.82-3.13-6.25-11.66-1.19-15.13a14.24,14.24,0,0,1,8.76-2.51,20.44,20.44,0,0,1,5.86,1,9.3,9.3,0,0,1,6.48,6.77,3.56,3.56,0,0,1,0,1.59c0,.29-.39.74-.68.74a10.73,10.73,0,0,1-5.29-.85,2.84,2.84,0,0,1-1.14-1.14,5,5,0,0,0-3-2.22,8.33,8.33,0,0,0-5.86.34,4.28,4.28,0,0,0-1.54,1.48,2.62,2.62,0,0,0,.8,3.81,13.16,13.16,0,0,0,2.44,1.14c2.45.74,4.9,1.37,7.34,2a14.41,14.41,0,0,1,4.5,1.94,8.28,8.28,0,0,1,3.75,6.88,9.48,9.48,0,0,1-6,9.5,18.29,18.29,0,0,1-14.85,0,10.25,10.25,0,0,1-6.43-8.14,1.41,1.41,0,0,1,1.54-1.7c.17,0,.34.06.51.06C960.41,628.9,961.66,629.13,963.19,629.36Z"/><path d="M576.75,622.42V609.9a10.26,10.26,0,0,1,.23-2.67,1.76,1.76,0,0,1,1.13-1,9.11,9.11,0,0,1,2.16-.23h16.9a14.4,14.4,0,0,1,2.16.23,1.26,1.26,0,0,1,.86.63,5.57,5.57,0,0,1,0,4.15,1.23,1.23,0,0,1-.79.62,8.67,8.67,0,0,1-2.17.29c-2.9.06-5.8,0-8.7.06a29.3,29.3,0,0,0-3.24.17c-.68.05-1.54.74-1.54,1.3,0,1.65,0,3.25.06,4.9a1,1,0,0,0,.68.74,13.53,13.53,0,0,0,2.16.34c2.9.06,5.81,0,8.71.06a9.41,9.41,0,0,1,2.16.28,1.23,1.23,0,0,1,.74.74,7.39,7.39,0,0,1,.06,4.27,1.76,1.76,0,0,1-1.14,1c-2.56.17-5.07.17-7.63.23-1.65.06-3.24.11-4.89.23a1,1,0,0,0-.79.62,9,9,0,0,0,0,5.35,1.32,1.32,0,0,0,.79.68,9,9,0,0,0,2.16.29c3.25.06,6.55,0,9.79.06,1.25,0,2.56.11,3.81.17a1.51,1.51,0,0,1,1.42,1.36c.06.91.06,1.82.06,2.73a1.72,1.72,0,0,1-1.76,1.65c-.74.06-1.43.06-2.17.06h-18c-3,0-3.3-.51-3.3-3.59V622.42Z"/><path d="M668.28,638.74a15.22,15.22,0,0,1-2.22.35c-1.82,0-3.64.28-5.34-.29-.29-.34-.63-.51-.74-.85q-4.87-15-9.73-30.1a2.73,2.73,0,0,1,.06-1.19,10.58,10.58,0,0,1,5.8-.23,2.1,2.1,0,0,1,1.19,1c.57,1.36,1,2.73,1.43,4.09,1.53,4.84,3.07,9.73,4.55,14.56a1.44,1.44,0,0,0,1.65,1.2c.74-2.16,1.53-4.38,2.21-6.6,1.26-3.81,2.39-7.62,3.65-11.43a7.44,7.44,0,0,1,.85-2c.28-.39.8-.91,1.25-.91,1.59,0,3.24,0,4.89.06.4,0,.86.8.74,1.25-.17.69-.28,1.43-.51,2.11-2.84,8.65-5.63,17.29-8.53,25.88C669.19,636.7,668.68,637.66,668.28,638.74Z"/><path d="M891.51,625.66v-9.22c0-.91,0-1.82-.11-2.73a1.63,1.63,0,0,0-1.42-1.36c-1.65-.12-3.24-.12-4.89-.23a21,21,0,0,1-2.68-.28,1.34,1.34,0,0,1-.79-.69,5.62,5.62,0,0,1,0-4.21,1.42,1.42,0,0,1,.86-.62,3.34,3.34,0,0,1,1.08-.17h22.81a5.13,5.13,0,0,1,1.59.22c.29.12.74.46.74.69a21.36,21.36,0,0,1,.06,3.75,1.86,1.86,0,0,1-1,1.08,3.55,3.55,0,0,1-1.59.23c-1.25.06-2.56.06-3.81.06-3,.05-3.58.28-3.58,3.35v17.41c0,1.25,0,2.56-.06,3.81-.06,1.6-.74,2.28-2.39,2.28-1.25,0-2.5-.12-3.76-.23a1.25,1.25,0,0,1-.73-.68,8.54,8.54,0,0,1-.35-2.11V625.66Z"/><path class="cls-1" d="M683,276.08V225.33c0-1.48.05-2.9.17-4.38a1.69,1.69,0,0,1,1.42-1.42,6.59,6.59,0,0,1,1.08-.11c9.1,0,18.2,0,27.25.05a33.78,33.78,0,0,1,8.59,1.31A21.59,21.59,0,0,1,735.58,232a36.17,36.17,0,0,1,2.9,7.62,75.19,75.19,0,0,1,1.88,15.13c.11,2.73.11,5.47.11,8.2,0,9.44,0,18.88-.05,28.38-.06,3.64-.23,7.28-.46,10.93A46,46,0,0,1,737.57,314a28.51,28.51,0,0,1-3.87,7.79,24.91,24.91,0,0,1-11.94,9.1,35.33,35.33,0,0,1-9,2.11c-2,.17-4,.34-6,.34-6.89.05-13.83,0-20.71,0a9,9,0,0,1-2.16-.29,1.28,1.28,0,0,1-.74-.74,5.14,5.14,0,0,1-.23-1.59c-.06-1.82-.06-3.64-.06-5.46v-49.1C682.9,276.08,683,276.08,683,276.08Z"/><path class="cls-1" d="M1118.44,421h-21.27c-1.65,0-3.25-.11-4.9-.22a1.55,1.55,0,0,1-1.42-1.88c1.08-7.17,2.16-14.39,3.19-21.56,1.36-9,2.67-18,4-27,2.39-15.47,4.78-30.89,7.11-46.36,1.31-8.42,2.5-16.9,3.75-25.37q2.91-18.87,5.81-37.72c1-6.32,1.87-12.57,2.84-18.89a9.65,9.65,0,0,1,.57-2.1c.11-.23.57-.35.85-.52a.58.58,0,0,1,.29.35c.91,5.74,1.76,11.49,2.61,17.23,1.31,8.65,2.62,17.24,3.87,25.89.91,6.14,1.77,12.23,2.68,18.37,1.3,9,2.67,18,4,27l3.58,24.29c1.31,9,2.67,18,4,27,.86,5.58,1.65,11.15,2.45,16.73,1,6.66,2,13.31,3,20a27.75,27.75,0,0,1,.22,3.75,1.09,1.09,0,0,1-.62.8,10.46,10.46,0,0,1-2.68.4c-7.28,0-14.56,0-21.84-.06h-2.16S1118.44,421,1118.44,421Z"/></svg>