<?xml version="1.0" encoding="utf-8"?>
<!-- Generator: Adobe Illustrator 21.1.0, SVG Export Plug-In . SVG Version: 6.00 Build 0)  -->
<svg version="1.1" id="Layer_1" xmlns="http://www.w3.org/2000/svg" xmlns:xlink="http://www.w3.org/1999/xlink" x="0px" y="0px"
	 viewBox="0 0 14400 14400" style="enable-background:new 0 0 14400 14400;" xml:space="preserve">
<style type="text/css">
	.st0{fill:#FFFFFF;}
</style>
<g>
	<path class="st0" d="M8995.3,8611.4c-1200.6,0-2401.3,0-3601.9,0c0-927.4,0-1854.7,0-2782.1c1200.6,0,2401.3,0,3601.9,0
		C8995.3,6756.7,8995.3,7684.1,8995.3,8611.4z M7188.9,6736.9c-415.4,0-830.7,0-1246.1,0c-3.8,0-7.7,0-11.5,0
		c-1.3,0-2.5,0.2-3.8,0.3c-1.1,0.1-2.3,1.4-2.3,2.6c-0.1,3.2-0.2,6.4-0.2,9.6c0,36.8,0,73.6,0,110.4c0,310.4-0.1,620.8-0.1,931.2
		c0,3.5,0,7,0.1,10.6c0,0.9,0.2,1.9,0.6,2.8c0.2,0.5,0.8,1.2,1.3,1.3c1.9,0.3,3.8,0.7,5.7,0.7c29.8,0,59.5,0,89.3,0
		c2.2,0,4.5,0,6.7-0.6c3.2-0.9,6.3-0.9,9.5-0.9c9.6,0,19.2,0,28.8,0c219.2,0,438.4,0,657.6,0c3.8,0,7.7-0.1,11.5-0.1
		c1.8,0,3.1-1.3,3.2-2.9c0.1-1.6,0.2-3.2,0.2-4.8c0-28.8,0-57.6,0-86.4c0-1.6-0.2-3.2-0.3-4.8c-0.1-1.1-1.4-2.3-2.6-2.4
		c-3.8-0.1-7.7-0.2-11.5-0.2c-226.2,0-452.5,0-678.7,0c-2.9,0-5.8,0-8.6,0c-7.5,0-8.1,0-8.1-8c0-2.6,0-5.1,0-7.7
		c0-76.2,0-152.3,0-228.5c0-201,0-401.9,0-602.9c0-3.5,0-7,0.1-10.6c0.1-3.9,1.1-4.8,5.3-4.9c3.8-0.1,7.7,0,11.5,0
		c471,0,942.1,0,1413.1,0c292.5,0,585,0,877.4,0c13,0,11.8-1.2,11.8,11.8c0,212.5,0,425,0,637.4c0,2.6,0,5.1-0.1,7.7
		c-0.1,2.4-1.3,3.7-3.4,3.7c-2.9,0.1-5.8,0.1-8.6,0.1c-68.2,0-136.3,0-204.5,0c-2.6,0-5.1,0-7.7-0.1c-3.6-0.1-4.7-1.1-4.8-4.4
		c-0.1-3.5-0.1-7-0.1-10.6c0.1-125.8,0.3-251.5,0.5-377.3c0.1-43.8,0.2-87.7,0.3-131.5c0-7.7,0-15.4,0-23c0-4-1.2-5.1-5.1-5.3
		c-1.6-0.1-3.2-0.1-4.8-0.1c-27.8,0-55.7-0.1-83.5-0.1c-2.2,0-4.5,0-6.7,0.1c-2.1,0.1-3.7,1.6-3.7,3.6c-0.1,3.2-0.1,6.4-0.1,9.6
		c-0.2,142.1-0.3,284.2-0.6,426.2c-0.1,39.4,0,78.7-0.8,118.1c-0.6,30.7-0.2,61.4-0.2,92.2c0,1.6,0.2,3.2,0.3,4.8
		c0.1,1,1.5,2.4,2.6,2.4c3.5,0.2,7,0.3,10.5,0.3c90.9,0,181.8,0,272.6,0c24,0,48,0.2,72,0.2c22.7,0,45.4,0.2,68.1-0.4
		c12.7-0.3,11.7,0.8,11.8-12.2c0.1-36.8,0.1-73.6,0.1-110.4c0-235.2,0-470.4,0-705.6c0-12.8-0.2-25.6-0.3-38.4c0-1.6-1.4-3-3-3
		c-6.4,0-12.8,0.2-19.2,0.2C8016.5,6736.9,7602.7,6736.9,7188.9,6736.9z M6734.2,7602.7c2.4,1.1,5,0.8,7.5,0.8
		c29.8,0.1,59.5,0.1,89.3,0.2c1.6,0,3.2,0,4.8-0.1c2.6-0.2,4-0.7,4.2-4c0.1-2.2,0.1-4.5,0.1-6.7c0.2-64,0.4-128,0.5-191.9
		c0.2-92.5,0.3-184.9,0.4-277.4c0.1-56,0.1-112,0.1-168c0-8.8-0.1-8.9-9.2-8.9c-25.3-0.1-50.5-0.1-75.8-0.1c-1.6,0-3.2,0.2-4.8,0.3
		c-1.1,0.1-2.5,1.3-2.5,2.5c-0.2,2.5-0.3,5.1-0.3,7.6c-0.1,43.8-0.2,87.7-0.3,131.5c-0.1,58.5-0.2,117.1-0.3,175.6
		c0,17.3,0,34.6-0.1,51.8c0,3.2-0.3,6.4-0.5,9.5c0,0.3-0.4,0.8-0.5,0.8c-0.5-0.2-1.3-0.3-1.5-0.7c-0.8-2.4-1.6-4.9-2.2-7.3
		c-18.3-68.2-36.5-136.5-54.8-204.7c-10.8-40.5-21.6-80.9-32.5-121.4c-3.6-13.6-7.2-27.2-10.9-40.8c-1.2-4.5-2.4-4.7-6-4.8
		c-1.9-0.1-3.8,0-5.8,0c-36.2,0-72.3,0-108.5,0c-2.6,0-5.1,0.1-7.7,0.2c-1.8,0.1-3.1,1.3-3.2,2.9c-0.2,5.1-0.4,10.2-0.4,15.3
		c-0.1,31.4-0.2,62.7-0.3,94.1c-0.1,83.5-0.3,167-0.4,250.5c-0.1,88.3-0.2,176.6-0.2,264.9c0,7-0.1,14.1-0.1,21.1
		c0,1.6,0.1,3.2,0.3,4.8c0.1,1.2,1.3,2.5,2.4,2.6c1.9,0.2,3.8,0.3,5.7,0.4c25.6,0.1,51.2,0.1,76.8,0.1c1.9,0,3.8-0.2,5.7-0.3
		c1.1-0.1,2.3-1.4,2.4-2.6c0.2-3.2,0.3-6.4,0.3-9.6c0.2-87.3,0.4-174.7,0.6-262c0.1-60.1,0.2-120.3,0.3-180.4c0-2.6,0.1-5.1,0.2-7.7
		c0-0.2,0.2-0.6,0.4-0.7c0.8-0.2,1.2,0.1,1.5,0.9c0.6,1.8,1.2,3.6,1.7,5.5c11.4,42.3,22.8,84.6,34.1,126.9
		c20.6,76.9,41.2,153.8,61.8,230.7c8.1,30.3,16.3,60.5,24.4,90.8C6731.9,7597.4,6732.3,7600.3,6734.2,7602.7z M7158.2,7283.9
		c1.4-2.8,4.5-3.4,6.8-4.8c18.4-10.9,32.2-26.1,41.7-45.2c3.7-7.5,6.6-15.3,8.8-23.3c5-17.7,7.1-35.8,7.3-54
		c0.3-20.5,0.1-41,0.1-61.4c0-14.4-1.4-28.8-4-42.9c-2.3-12.6-6-24.9-11.6-36.5c-10.4-21.8-26.3-38.4-47.7-49.5
		c-6-3.1-12.2-5.7-18.5-7.9c-14.9-5.1-30.3-7.9-46-9.1c-9.6-0.7-19.2-1-28.8-1.1c-25.9-0.2-51.8-0.2-77.8-0.2
		c-20.2,0-40.3-0.1-60.5-0.1c-2.2,0-4.5,0-6.7,0c-6.6,0.1-7.3,0.7-7.4,7c0,1.9,0,3.8,0,5.8c-0.2,133.7-0.4,267.5-0.6,401.2
		c-0.1,42.2-0.2,84.5-0.3,126.7c-0.1,19.8-0.2,39.7-0.3,59.5c-0.1,15.7-0.1,31.4-0.1,47c0,1.9,0.1,3.8,0.3,5.7
		c0.1,1.6,1.5,2.8,3.2,2.9c1.9,0.1,3.8,0.2,5.8,0.2c28.8,0.1,57.6,0.2,86.4,0.2c8.8,0,8.9-0.1,8.9-9.2c0.1-32,0.1-64,0.1-96
		c0.1-49.6,0.1-99.2,0.2-148.8c0-3.2,0.1-6.4,0.3-9.6c0-1.2,1.3-2.4,2.5-2.5c1.9-0.1,3.8-0.3,5.7-0.3c8.6,0,17.3,0,25.9,0.1
		c4.5,0.1,9,0.2,13.4,0.6c6.1,0.5,12,1.8,17.7,3.9c11.3,4.1,19.9,11.4,25.6,22c2.1,4,3.8,8.1,5.2,12.4c2.1,6.7,3.3,13.7,4.2,20.7
		c1.1,9.6,1.4,19.1,1.3,28.7c-0.1,34.6-0.2,69.1-0.1,103.7c0,14.4-0.1,28.8,1.7,43.1c1,8,2.4,15.8,4.8,23.5c2.6,8.2,2,8.3,11.3,8.4
		c28.5,0.1,57,0.2,85.4,0.3c2.6,0,5.1-0.1,7.7-0.2c0.6,0,1.3-0.2,1.8-0.6c0.5-0.4,1-1.1,1-1.5c-0.3-1.9-0.8-3.7-1.4-5.5
		c-3.2-9.1-5.4-18.5-6.4-28c-1.2-10.8-2.2-21.6-2-32.6c0.1-8.3,0-16.6,0-25c0-33,0-65.9,0-98.9c0-14.4-1.6-28.7-4.2-42.9
		c-2.3-12.3-5.9-24.2-11.2-35.6c-6.2-13.2-14.6-24.7-25.8-34.3c-5.6-4.8-11.8-8.8-18.2-12.3
		C7161.8,7286.5,7159.5,7286,7158.2,7283.9z M6445.2,7212.2c0.1,0,0.3,0,0.4,0c0-39.7,0-79.3,0-119c0-36.5,0.1-72.9,0.1-109.4
		c0-10.2,0-20.5,0-30.7c0-1.6-0.2-3.2-0.6-4.7c-0.1-0.5-0.8-1.2-1.3-1.3c-2.5-0.3-5.1-0.5-7.6-0.5c-25.9-0.1-51.8-0.1-77.7-0.1
		c-11.6,0-10.9-0.6-10.9,11c-0.1,43.2-0.2,86.4-0.3,129.6c-0.2,90.5-0.3,181.1-0.5,271.6c-0.1,29.8-0.1,59.5-0.3,89.3
		c0,7-0.5,14.1-1,21.1c-0.6,7.4-2.6,14.5-5.6,21.2c-5.5,12.1-14.7,19.9-27.6,23.4c-5,1.4-10,1.9-15.2,2c-7.4,0.1-14.7,0-21.9-2
		c-12.8-3.5-22-11.2-27.6-23.3c-3.6-8-5.5-16.4-6-25c-0.4-6.1-0.5-12.1-0.5-18.2c0-29.4,0.1-58.9,0.2-88.3
		c0.1-66.5,0.1-133.1,0.2-199.6c0.1-60.8,0.2-121.6,0.3-182.3c0-8.6,0-17.3-0.1-25.9c0-2.8-1.3-4.1-4-4.2c-1.6-0.1-3.2-0.1-4.8-0.1
		c-28.8,0-57.6,0-86.4,0c-1.9,0-3.8,0.1-5.7,0.3c-1.2,0.1-2.5,1.2-2.6,2.3c-0.1,2.9-0.3,5.7-0.3,8.6c-0.2,54.1-0.3,108.1-0.5,162.2
		c-0.1,31-0.3,62.1-0.4,93.1c-0.2,78.1-0.3,156.1-0.4,234.2c0,17.7,1.9,35.1,5.6,52.4c3.2,15.1,8.2,29.6,15.6,43.2
		c12.6,23.2,30.6,40.8,54.3,52.5c8.6,4.3,17.6,7.7,26.9,10c14.3,3.6,28.7,6.2,43.6,5.9c8-0.2,16,0,24-0.1c1.9,0,3.8,0,5.8-0.2
		c13.1-1.5,26-3.8,38.5-7.9c36.4-11.9,62.5-35.2,78.1-70.3c6-13.5,10-27.6,12.5-42.2c2.7-15.5,3.7-31.1,3.8-46.8
		C6445.3,7366.4,6445.2,7289.3,6445.2,7212.2z M7789.3,6949.4c0-0.1,0-0.1,0-0.2c-22.7,0-45.4,0-68.1,0c-7.6,0-7.8,0.5-9,7.9
		c-5.5,33.8-11,67.5-16.5,101.3c-4.1,25.6-8.1,51.1-12.3,76.7c-4.9,30.3-9.9,60.6-14.8,90.9c-4.1,25.6-8.2,51.1-12.4,76.7
		c-4,24.9-8.2,49.8-12.2,74.8c-4.4,26.8-8.7,53.6-13,80.5c-3.6,22.1-7.1,44.2-10.7,66.3c-2.2,13.6-4.5,27.1-6.7,40.7
		c-2,12.3-4,24.6-5.9,36.9c-0.3,1.8,0.8,3.2,2.5,3.3c1.6,0.1,3.2,0.2,4.8,0.2c26.9,0.1,53.7,0.1,80.6,0.1c1.6,0,3.2-0.1,4.8-0.3
		c1.2-0.1,2.4-1.2,2.6-2.4c0.8-5,1.6-10.1,2.4-15.1c3.8-25.3,7.7-50.6,11.5-75.9c1.1-7,2.2-13.9,3.3-20.8c0.5-3,1.7-4,4.4-4.1
		c2.2-0.1,4.5-0.1,6.7-0.1c27.2,0,54.4,0.1,81.6,0.2c8,0,16,0.1,24,0.1c2.2,0,4.5,0.1,6.7,0.3c1.5,0.1,2.9,1.5,3.2,3.1
		c0.1,0.3,0.1,0.6,0.2,0.9c3.4,23.1,6.7,46.2,10.1,69.3c1.9,13,3.8,25.9,5.8,38.9c0.2,1.3,0.5,2.5,0.8,3.7c0.2,0.9,1.8,2.3,2.8,2.4
		c2.6,0.1,5.1,0.2,7.7,0.3c21.8,0.1,43.5,0.2,65.3,0.3c8,0,16,0,24-0.1c4.7,0,4.9-1.8,4.6-5.3c-0.1-1.6-0.5-3.2-0.7-4.7
		c-2.2-13.9-4.5-27.8-6.7-41.7c-2.2-14.2-4.4-28.4-6.7-42.6c-4.1-25.9-8.3-51.8-12.4-77.7c-4.1-26.2-8.1-52.4-12.3-78.7
		c-4.1-26.2-8.4-52.4-12.6-78.6c-4.2-26.5-8.2-53.1-12.4-79.6c-4.1-26.2-8.4-52.4-12.6-78.6c-4.1-26.2-8.1-52.4-12.2-78.7
		c-4.4-27.8-8.8-55.6-13.2-83.4c-0.2-1.6-0.7-3.1-1.1-4.6c-0.4-1.3-1.5-2.1-2.8-2.2c-3.2-0.2-6.4-0.3-9.6-0.3
		C7831.5,6949.4,7810.4,6949.4,7789.3,6949.4z M7290.3,7276.1c-0.1,0-0.2,0-0.3,0c-0.1,55-0.3,110.1-0.4,165.1
		c0,16.6-0.1,33.3-0.2,49.9c-0.1,34.9-0.3,69.8-0.4,104.6c0,1.9,0.2,3.8,0.3,5.7c0.1,1.1,1.4,2.5,2.5,2.5c3.8,0.2,7.7,0.4,11.5,0.5
		c85.4,0.2,170.9,0.5,256.3,0.7c1.9,0,3.8,0,5.8,0c1,0,1.9-0.1,2.9-0.2c1.2-0.1,2.4-1.3,2.5-2.5c0.2-2.2,0.3-4.5,0.4-6.7
		c0.1-25.3,0.1-50.6,0.1-75.8c0-9.7,0.2-9.9-10.3-9.9c-21.8,0-43.5-0.2-65.3-0.2c-30.7-0.1-61.4-0.1-92.2-0.2
		c-10.3,0-9.9,0.4-9.9-10c0.1-57,0.1-113.9,0.2-170.9c0-2.2,0.1-4.5,0.2-6.7c0.1-1.2,1.3-2.5,2.4-2.5c3.2-0.1,6.4-0.3,9.6-0.3
		c38.7,0,77.4,0.1,116.2,0.1c3.2,0,6.4,0,9.6-0.1c1.7,0,3.1-1.3,3.2-2.9c0.2-2.9,0.3-5.7,0.3-8.6c0.1-22.4,0.1-44.8,0.2-67.2
		c0-3.5,0.1-7,0-10.6c-0.1-3.9-1.3-5.2-5.1-5.3c-2.6-0.1-5.1-0.1-7.7-0.1c-33.9-0.1-67.8-0.1-101.8-0.2c-7,0-14.1,0-21.1-0.1
		c-4.9-0.1-5.7-0.9-5.8-5.4c0-1.9,0-3.8,0-5.8c0.1-53.1,0.2-106.2,0.3-159.3c0-11.6-0.6-10.7,11.2-10.6c46.4,0,92.8,0.1,139.2,0.2
		c6.7,0,13.4,0,20.2,0c1.6,0,3.2-0.1,4.8-0.3c1.2-0.1,2.5-1.3,2.6-2.4c0.1-1.3,0.3-2.5,0.3-3.8c0.1-26.9,0.1-53.8,0.1-80.6
		c0-1.6-0.2-3.2-0.3-4.8c-0.1-1.1-1.4-2.4-2.6-2.5c-3.8-0.2-7.7-0.4-11.5-0.4c-23.4-0.1-46.7-0.1-70.1-0.1
		c-40.6-0.1-81.3-0.2-121.9-0.2c-21.4,0-42.9-0.1-64.3-0.1c-2.9,0-5.7,0.2-8.6,0.4c-1.1,0.1-2.6,1.4-2.6,2.5
		c-0.1,3.2-0.3,6.4-0.3,9.6C7290.3,7065.5,7290.3,7170.8,7290.3,7276.1z M8042,7804.9C8042,7804.9,8042,7804.9,8042,7804.9
		c132.1,0,264.3,0,396.4,0c1.3,0,2.6,0,3.8,0c11.1-0.1,10.9,0.9,10.8-11.2c-0.1-9.6-0.5-19.2-0.5-28.8c0-12.2,0.4-24.3,0.5-36.5
		c0.1-22.7,0-45.4,0-68.1c0-1.3-0.1-2.6-0.1-3.8c-0.1-1.8-1.7-3-3.2-2.4c-2.9,1.3-5.8,2.6-8.7,4c-28.1,13.2-56.1,26.4-84.2,39.6
		c-11.8,5.5-11.8,5.5-24.8,5.5c-228.1,0-456.3,0-684.4,0c-3.2,0-6.4,0-9.6,0c-1.3,0-2.6,0.1-3.8,0.2c-1.2,0.1-2.4,1.3-2.5,2.5
		c-0.2,2.5-0.3,5.1-0.3,7.6c0,26.9,0,53.8,0,80.6c0,2.2,0,4.5,0.1,6.7c0.1,2.3,1.3,3.6,3.5,3.7c3.5,0.1,7,0.1,10.6,0.1
		C7777.7,7804.9,7909.9,7804.9,8042,7804.9z M7243.1,7722.6c-4.7-0.6-8.5-0.6-12.3-0.2c-1.1,0.1-1.7,1-1.9,1.8
		c-0.3,1.2-0.4,2.5-0.4,3.8c0,15.3,0,30.7,0,46c0,1.3,0,2.6,0.3,3.8c0.2,0.8,1,1.9,1.7,2c2.2,0.2,4.4,0.3,6.6,0
		c0.6-0.1,1.5-1.2,1.7-2c0.3-1.9,0.4-3.8,0.4-5.7c0-7.7,0-15.3,0-23c0-1.6,0.2-3.2,0.4-4.7c0-0.2,0.5-0.4,0.8-0.5
		c0.3-0.1,0.7-0.1,0.9,0c0.9,0.8,1.9,1.7,2.6,2.7c6,8.2,12,16.5,18.1,24.8c2.1,2.8,4.2,5.6,6.1,8.2c3.5,1.2,6.6,1,9.7,0.3
		c1.6-2,1.3-4.3,1.3-6.5c0-14.7,0-29.4,0-44.1c0-1.3-0.1-2.6-0.2-3.8c-0.1-1.9-1.2-3-2.9-3.1c-1-0.1-1.9-0.1-2.9-0.1
		c-3.1,0-4.3,1-4.3,3.7c-0.1,6.1-0.1,12.1-0.1,18.2c0,3.2-0.1,6.4-0.3,9.6c0,0.4-0.8,0.8-1.3,1.1c-0.2,0.1-0.7-0.1-0.9-0.3
		c-1.6-2-3.2-3.9-4.7-6C7255.5,7740,7249.4,7731.5,7243.1,7722.6z M7095.2,7752.2c0,7,0,14.1,0,21.1c0,1.6,0.1,3.2,0.4,4.8
		c0.2,0.9,0.8,1.8,1.9,1.9c1.9,0.2,3.8,0.4,5.7,0.4c9.6,0,19.2,0,28.8,0c1.6,0,3.2-0.1,4.8-0.1c1.8-0.1,2.9-1.3,3.1-3
		c0.6-6.3-0.3-7.2-6.7-7.3c-6.7-0.1-13.4,0-20.2-0.1c-1.2,0-2.5-0.3-3.7-0.6c-0.5-0.2-1.1-0.8-1.2-1.3c-0.8-2.8-0.6-5.7-0.2-8.5
		c0.2-1.1,1.1-1.7,1.9-1.9c1.6-0.3,3.2-0.3,4.8-0.3c4.8-0.1,9.6,0,14.4-0.1c0.9,0,1.9-0.2,2.8-0.5c0.5-0.2,1.1-0.8,1.2-1.3
		c0.8-2.5,0.9-5-0.1-7.5c-0.2-0.5-0.7-1.1-1.3-1.3c-0.9-0.3-1.8-0.6-2.8-0.6c-5.1-0.1-10.2-0.1-15.4-0.1c-5.8,0-6-1-6-6.1
		c0-1.6,0.2-3.2,0.4-4.7c0.1-1.1,1.1-1.7,1.9-1.9c1.9-0.3,3.8-0.3,5.7-0.4c5.8-0.1,11.5,0,17.3-0.1c3-0.1,3.9-1.1,4-4.1
		c0-1.3-0.2-2.5-0.2-3.8c0-1.2-0.9-1.7-1.7-2c-0.9-0.3-1.9-0.3-2.8-0.4c-10.6,0-21.1,0-31.7,0c-0.9,0-2,0-2.8,0.4
		c-0.8,0.3-1.8,1-2,1.8c-0.4,1.5-0.5,3.1-0.5,4.7C7095.2,7736.8,7095.2,7744.5,7095.2,7752.2z M7510.5,7763.2
		c-2.7-0.4-4.9-0.8-7.1-1.2c-0.3-0.1-0.6-0.1-0.9-0.1c-1.7-0.2-3,1.3-2.7,3c1.1,6.9,5.1,11.7,11.3,14.3c8.6,3.7,17.5,3.7,26.1,0
		c7.3-3.1,10.8-9.4,10.5-16.7c-0.2-5.2-2.4-9.2-6.6-12.1c-2.4-1.6-5-2.7-7.9-3.4c-4.3-1.1-8.6-2.3-12.9-3.5c-1.5-0.4-3-1.2-4.3-2
		c-2.3-1.3-3-4.3-1.4-6.7c0.7-1,1.6-2,2.7-2.6c3.3-1.6,6.8-1.5,10.3-0.6c2.3,0.6,3.9,2,5.3,3.9c0.5,0.8,1.2,1.7,2,2
		c3,1.1,6.1,2,9.3,1.5c0.5-0.1,1-0.8,1.2-1.3c0.2-0.9,0.2-1.9,0-2.8c-1.5-6.1-5.6-10-11.4-11.9c-3.3-1.1-6.9-1.7-10.3-1.8
		c-5.5-0.2-10.7,1.2-15.4,4.4c-9,6.2-9.9,21.1,2.1,26.6c2.6,1.2,5.4,2.1,8.1,2.9c3.1,0.9,6.2,1.5,9.2,2.5c2.1,0.7,4.1,1.8,5.9,3.1
		c2.5,1.7,2.7,5.4,0.7,7.6c-0.6,0.7-1.3,1.5-2.1,1.8c-2.1,0.8-4.2,1.6-6.4,1.8c-5.8,0.4-10.8-1-13.6-6.7
		C7511.8,7764.6,7511.3,7764.2,7510.5,7763.2z M6831.2,7751C6831.2,7751,6831.2,7751,6831.2,7751c0,5.7,0,11.5,0,17.2
		c0,1.9,0,3.8,0,5.7c0,5.3,0.5,6.3,5.8,6.3c0.3,0,0.6,0,1,0c10.2,0,20.4,0,30.6,0c1.3,0,2.6-0.1,3.8-0.1c1.8-0.1,3-1.2,3.1-2.9
		c0.1-1.6,0-3.2-0.1-4.8c0-1.1-1.3-2.3-2.5-2.4c-2.2-0.1-4.5-0.3-6.7-0.3c-5.7,0-11.5,0-17.2-0.1c-1.3,0-2.5-0.2-3.8-0.5
		c-0.5-0.1-1.2-0.7-1.4-1.2c-1-3.1-0.9-6.3,0-9.4c0.1-0.5,0.9-1.1,1.4-1.1c2.9-0.2,5.7-0.4,8.6-0.4c4.5-0.1,8.9-0.1,13.4-0.4
		c0.7,0,1.8-1,2-1.7c0.7-2.5,0.7-5.1-0.1-7.5c-0.2-0.5-0.8-1.1-1.3-1.3c-1.2-0.3-2.5-0.5-3.8-0.5c-5.1-0.1-10.2,0-15.3-0.1
		c-1.3,0-2.5-0.2-3.8-0.6c-0.5-0.1-1.2-0.8-1.2-1.3c-0.1-2.8-0.2-5.7-0.1-8.6c0-1.1,1.4-2.2,2.7-2.3c1.9-0.1,3.8-0.2,5.7-0.3
		c5.1,0,10.2,0,15.3-0.1c1.3,0,2.5-0.2,3.8-0.5c0.6-0.1,1.2-0.6,1.4-1.1c1-2.4,1-4.9-0.1-7.3c-0.2-0.5-0.9-0.9-1.5-1.1
		c-1.2-0.3-2.5-0.4-3.8-0.4c-9.9,0-19.8,0-29.7,0c-1.3,0-2.6,0-3.8,0.4c-0.8,0.2-1.8,1-2,1.7c-0.4,1.5-0.4,3.2-0.4,4.7
		C6831.2,7736.4,6831.2,7743.7,6831.2,7751z M6992.1,7779.7c0.8-1.9,1.6-3.6,2.2-5.4c5-15.2,10-30.3,15-45.5
		c0.4-1.2,0.6-2.5,0.9-3.7c0.2-0.9-0.6-2.2-1.3-2.2c-2.9-0.1-5.7-0.3-8.6-0.1c-0.8,0-1.7,0.9-2.2,1.6c-0.7,1-1.1,2.3-1.5,3.5
		c-2.1,6.7-4.2,13.4-6.4,20.1c-1.3,3.9-2.7,7.8-3.9,11.6c-1.8,0.1-2.5-0.8-2.9-2.1c-2.7-8.5-5.3-17.1-8-25.6
		c-0.8-2.4-1.5-4.9-2.5-7.2c-0.3-0.8-1.3-1.6-2.1-1.8c-3.4-0.7-6.9-0.8-10.2,0.4c-0.1,0.9-0.3,1.6-0.1,2.1
		c5.7,17.6,11.4,35.3,17.1,52.9c0.2,0.5,0.8,0.9,1.3,1.5c3,1.1,6.2,0.5,9.4,0.5C6989.4,7780.3,6990.7,7779.9,6992.1,7779.7z
		 M7384.5,7756.7C7384.5,7756.7,7384.5,7756.7,7384.5,7756.7c0,6.1,0,12.1,0,18.2c0,1.2,0.2,2.5,0.6,3.7c0.1,0.5,0.8,1.2,1.3,1.2
		c2.2,0.3,4.4,0.4,6.6,0.4c2.9,0,4.1-1.2,4.2-4c0.1-2.2,0.1-4.5,0.1-6.7c0-8,0-15.9,0-23.9c0-2.2,0-4.5,0-6.7c0-5.3,1-5.8,6.3-5.9
		c2.2,0,4.5,0,6.7-0.1c0.9,0,2,0,2.8-0.4c0.8-0.4,1.7-1.2,1.8-1.9c0.2-2.2,0-4.4-0.1-6.6c0-0.4-0.8-1-1.3-1.2
		c-0.9-0.3-1.9-0.4-2.8-0.4c-13.4,0-26.8,0-40.1,0c-0.6,0-1.3,0-1.9,0.3c-0.6,0.2-1.3,0.6-1.5,1.1c-0.9,2.4-1,5-0.1,7.4
		c0.2,0.5,0.9,1.1,1.4,1.2c1.6,0.3,3.1,0.4,4.7,0.5c2.9,0.2,5.7,0.2,8.6,0.4c1.2,0.1,2.5,1.3,2.5,2.4c0.1,1.6,0.2,3.2,0.2,4.8
		C7384.5,7745.9,7384.5,7751.3,7384.5,7756.7z"/>
	<path d="M7188.9,6736.9c413.8,0,827.5,0,1241.3,0c6.4,0,12.8-0.1,19.2-0.2c1.7,0,3,1.4,3,3c0.1,12.8,0.3,25.6,0.3,38.4
		c0,235.2,0,470.4,0,705.6c0,36.8,0,73.6-0.1,110.4c0,13,0.9,11.8-11.8,12.2c-22.7,0.6-45.4,0.4-68.1,0.4c-24,0-48-0.2-72-0.2
		c-90.9,0-181.8,0-272.6,0c-3.5,0-7-0.2-10.5-0.3c-1.1,0-2.5-1.4-2.6-2.4c-0.1-1.6-0.3-3.2-0.3-4.8c0-30.7-0.4-61.4,0.2-92.2
		c0.8-39.4,0.7-78.7,0.8-118.1c0.3-142.1,0.4-284.2,0.6-426.2c0-3.2,0-6.4,0.1-9.6c0.1-2,1.6-3.5,3.7-3.6c2.2-0.1,4.5-0.1,6.7-0.1
		c27.8,0,55.7,0.1,83.5,0.1c1.6,0,3.2,0,4.8,0.1c3.9,0.2,5.1,1.3,5.1,5.3c0.1,7.7,0.1,15.4,0,23c-0.1,43.8-0.3,87.7-0.3,131.5
		c-0.2,125.8-0.3,251.5-0.5,377.3c0,3.5,0,7,0.1,10.6c0.1,3.3,1.2,4.3,4.8,4.4c2.6,0.1,5.1,0.1,7.7,0.1c68.2,0,136.3,0,204.5,0
		c2.9,0,5.8,0,8.6-0.1c2.2-0.1,3.4-1.4,3.4-3.7c0.1-2.6,0.1-5.1,0.1-7.7c0-212.5,0-425,0-637.4c0-13.1,1.2-11.8-11.8-11.8
		c-292.5,0-585,0-877.4,0c-471,0-942.1,0-1413.1,0c-3.8,0-7.7,0-11.5,0c-4.2,0.1-5.2,1-5.3,4.9c-0.1,3.5-0.1,7-0.1,10.6
		c0,201,0,401.9,0,602.9c0,76.2,0,152.3,0,228.5c0,2.6,0,5.1,0,7.7c-0.1,8,0.6,8,8.1,8c2.9,0,5.8,0,8.6,0c226.2,0,452.5,0,678.7,0
		c3.8,0,7.7,0.1,11.5,0.2c1.2,0,2.5,1.2,2.6,2.4c0.1,1.6,0.3,3.2,0.3,4.8c0,28.8,0,57.6,0,86.4c0,1.6-0.1,3.2-0.2,4.8
		c-0.1,1.6-1.4,2.9-3.2,2.9c-3.8,0.1-7.7,0.1-11.5,0.1c-219.2,0-438.4,0-657.6,0c-9.6,0-19.2,0-28.8,0c-3.2,0-6.4,0-9.5,0.9
		c-2.1,0.6-4.4,0.6-6.7,0.6c-29.8,0-59.5,0-89.3,0c-1.9,0-3.8-0.3-5.7-0.7c-0.5-0.1-1.1-0.7-1.3-1.3c-0.3-0.9-0.5-1.8-0.6-2.8
		c-0.1-3.5-0.1-7-0.1-10.6c0-310.4,0.1-620.8,0.1-931.2c0-36.8,0-73.6,0-110.4c0-3.2,0.1-6.4,0.2-9.6c0-1.2,1.2-2.5,2.3-2.6
		c1.3-0.1,2.5-0.3,3.8-0.3c3.8,0,7.7,0,11.5,0C6358.2,6736.9,6773.6,6736.9,7188.9,6736.9z"/>
	<path d="M6734.2,7602.7c-1.9-2.3-2.4-5.2-3.1-8c-8.1-30.3-16.3-60.5-24.4-90.8c-20.6-76.9-41.2-153.8-61.8-230.7
		c-11.3-42.3-22.7-84.6-34.1-126.9c-0.5-1.8-1.2-3.6-1.7-5.5c-0.2-0.8-0.7-1.1-1.5-0.9c-0.2,0.1-0.4,0.4-0.4,0.7
		c-0.1,2.6-0.2,5.1-0.2,7.7c-0.1,60.1-0.2,120.3-0.3,180.4c-0.2,87.3-0.4,174.7-0.6,262c0,3.2-0.2,6.4-0.3,9.6
		c-0.1,1.2-1.3,2.5-2.4,2.6c-1.9,0.1-3.8,0.3-5.7,0.3c-25.6,0-51.2-0.1-76.8-0.1c-1.9,0-3.8-0.2-5.7-0.4c-1.1-0.1-2.3-1.5-2.4-2.6
		c-0.1-1.6-0.3-3.2-0.3-4.8c0-7,0.1-14.1,0.1-21.1c0.1-88.3,0.1-176.6,0.2-264.9c0.1-83.5,0.2-167,0.4-250.5
		c0.1-31.4,0.2-62.7,0.3-94.1c0-5.1,0.2-10.2,0.4-15.3c0.1-1.6,1.4-2.8,3.2-2.9c2.6-0.1,5.1-0.2,7.7-0.2c36.2,0,72.3,0,108.5,0
		c1.9,0,3.8,0,5.8,0c3.6,0.2,4.8,0.4,6,4.8c3.7,13.6,7.3,27.2,10.9,40.8c10.8,40.5,21.6,80.9,32.5,121.4
		c18.3,68.3,36.5,136.5,54.8,204.7c0.7,2.5,1.4,4.9,2.2,7.3c0.1,0.4,0.9,0.5,1.5,0.7c0.1,0,0.5-0.5,0.5-0.8c0.2-3.2,0.5-6.4,0.5-9.5
		c0.1-17.3,0.1-34.6,0.1-51.8c0.1-58.5,0.2-117.1,0.3-175.6c0.1-43.8,0.2-87.7,0.3-131.5c0-2.5,0.2-5.1,0.3-7.6
		c0.1-1.1,1.4-2.4,2.5-2.5c1.6-0.1,3.2-0.3,4.8-0.3c25.3,0,50.5,0,75.8,0.1c9.1,0,9.2,0.1,9.2,8.9c0,56-0.1,112-0.1,168
		c-0.1,92.5-0.2,184.9-0.4,277.4c-0.1,64-0.4,128-0.5,191.9c0,2.2,0,4.5-0.1,6.7c-0.2,3.3-1.6,3.9-4.2,4c-1.6,0.1-3.2,0.1-4.8,0.1
		c-29.8,0-59.5-0.1-89.3-0.2C6739.2,7603.4,6736.6,7603.8,6734.2,7602.7z"/>
	<path d="M7158.2,7283.9c1.3,2.1,3.6,2.7,5.5,3.7c6.5,3.5,12.6,7.5,18.2,12.3c11.1,9.5,19.6,21,25.8,34.3
		c5.3,11.4,8.9,23.3,11.2,35.6c2.6,14.2,4.2,28.5,4.2,42.9c0,33,0,65.9,0,98.9c0,8.3,0.1,16.6,0,25c-0.2,10.9,0.8,21.7,2,32.6
		c1,9.6,3.2,18.9,6.4,28c0.6,1.8,1.1,3.7,1.4,5.5c0.1,0.5-0.5,1.2-1,1.5c-0.5,0.4-1.2,0.6-1.8,0.6c-2.6,0.1-5.1,0.2-7.7,0.2
		c-28.5-0.1-57-0.2-85.4-0.3c-9.3,0-8.7-0.2-11.3-8.4c-2.4-7.6-3.8-15.5-4.8-23.5c-1.8-14.3-1.7-28.7-1.7-43.1
		c-0.1-34.6,0-69.1,0.1-103.7c0-9.6-0.2-19.2-1.3-28.7c-0.8-7-2.1-13.9-4.2-20.7c-1.3-4.3-3-8.4-5.2-12.4
		c-5.7-10.6-14.3-17.9-25.6-22c-5.7-2.1-11.7-3.5-17.7-3.9c-4.5-0.3-8.9-0.5-13.4-0.6c-8.6-0.1-17.3-0.1-25.9-0.1
		c-1.9,0-3.8,0.2-5.7,0.3c-1.2,0.1-2.4,1.3-2.5,2.5c-0.1,3.2-0.2,6.4-0.3,9.6c-0.1,49.6-0.1,99.2-0.2,148.8c0,32-0.1,64-0.1,96
		c0,9.2-0.1,9.3-8.9,9.2c-28.8,0-57.6-0.1-86.4-0.2c-1.9,0-3.8-0.1-5.8-0.2c-1.7-0.1-3.1-1.4-3.2-2.9c-0.1-1.9-0.3-3.8-0.3-5.7
		c0-15.7,0.1-31.4,0.1-47c0.1-19.8,0.3-39.7,0.3-59.5c0.1-42.2,0.2-84.5,0.3-126.7c0.2-133.7,0.4-267.5,0.6-401.2c0-1.9,0-3.8,0-5.8
		c0.1-6.2,0.7-6.8,7.4-7c2.2,0,4.5,0,6.7,0c20.2,0,40.3,0,60.5,0.1c25.9,0.1,51.8,0,77.8,0.2c9.6,0.1,19.2,0.3,28.8,1.1
		c15.7,1.2,31.1,4,46,9.1c6.4,2.2,12.6,4.8,18.5,7.9c21.5,11.1,37.3,27.7,47.7,49.5c5.5,11.6,9.3,23.8,11.6,36.5
		c2.6,14.2,4.1,28.5,4,42.9c0,20.5,0.1,41-0.1,61.4c-0.2,18.3-2.3,36.4-7.3,54c-2.3,8-5.2,15.8-8.8,23.3
		c-9.5,19.2-23.3,34.3-41.7,45.2C7162.7,7280.4,7159.7,7281.1,7158.2,7283.9z M7018,7142.2c-0.1,0-0.2,0-0.3,0c0,28.8,0,57.5,0,86.3
		c0,3.2,0,6.4,0.1,9.6c0,0.9,0.1,1.9,0.4,2.8c0.2,0.5,0.8,1.2,1.3,1.3c1.2,0.3,2.5,0.5,3.8,0.5c12.1,0.1,24.3,0.1,36.4,0
		c3.5,0,7-0.3,10.5-0.6c5.4-0.5,10.7-1.8,15.8-3.7c8.7-3.2,15.7-8.5,21-16c3-4.2,5.2-8.8,6.8-13.7c2.3-6.7,3.7-13.6,4.2-20.6
		c0.4-6.4,0.8-12.8,0.8-19.2c0.1-16.6,0.1-33.2,0.1-49.9c0-4.8,0-9.6-0.2-14.4c-0.3-9-1.1-17.9-3.3-26.6c-1.2-4.7-2.8-9.1-5.1-13.4
		c-5.3-10.2-13.7-16.7-24.7-19.7c-4.9-1.4-10-2.3-15.1-2.3c-16-0.1-32-0.1-47.9-0.1c-0.6,0-1.3,0.1-1.9,0.2
		c-1.2,0.1-2.4,1.3-2.5,2.5c-0.1,2.5-0.3,5.1-0.3,7.7C7018,7082.8,7018,7112.5,7018,7142.2z"/>
	<path d="M6445.2,7212.2c0,77.1,0,154.2,0,231.3c0,15.7-1.1,31.3-3.8,46.8c-2.5,14.5-6.5,28.7-12.5,42.2
		c-15.6,35-41.8,58.4-78.1,70.3c-12.5,4.1-25.4,6.4-38.5,7.9c-1.9,0.2-3.8,0.2-5.8,0.2c-8,0-16-0.1-24,0.1
		c-14.9,0.3-29.3-2.3-43.6-5.9c-9.3-2.3-18.3-5.7-26.9-10c-23.7-11.7-41.7-29.3-54.3-52.5c-7.4-13.6-12.4-28.1-15.6-43.2
		c-3.7-17.3-5.6-34.7-5.6-52.4c0.1-78.1,0.2-156.1,0.4-234.2c0.1-31,0.3-62.1,0.4-93.1c0.2-54.1,0.3-108.1,0.5-162.2
		c0-2.9,0.2-5.7,0.3-8.6c0.1-1.1,1.4-2.3,2.6-2.3c1.9-0.1,3.8-0.3,5.7-0.3c28.8,0,57.6,0,86.4,0c1.6,0,3.2,0,4.8,0.1
		c2.8,0.1,4,1.4,4,4.2c0.1,8.6,0.1,17.3,0.1,25.9c-0.1,60.8-0.2,121.6-0.3,182.3c-0.1,66.5-0.1,133.1-0.2,199.6
		c0,29.4-0.2,58.9-0.2,88.3c0,6.1,0.1,12.2,0.5,18.2c0.6,8.7,2.4,17.1,6,25c5.5,12.1,14.7,19.8,27.6,23.3c7.2,2,14.5,2.2,21.9,2
		c5.1-0.1,10.2-0.6,15.2-2c12.9-3.5,22.1-11.3,27.6-23.4c3.1-6.7,5.1-13.8,5.6-21.2c0.5-7,0.9-14,1-21.1c0.2-29.8,0.2-59.5,0.3-89.3
		c0.2-90.5,0.3-181.1,0.5-271.6c0.1-43.2,0.2-86.4,0.3-129.6c0-11.6-0.7-11,10.9-11c25.9,0,51.8,0,77.7,0.1c2.5,0,5.1,0.2,7.6,0.5
		c0.5,0.1,1.2,0.7,1.3,1.3c0.3,1.5,0.6,3.2,0.6,4.7c0,10.2,0,20.5,0,30.7c0,36.5-0.1,72.9-0.1,109.4c0,39.7,0,79.3,0,119
		C6445.5,7212.2,6445.4,7212.2,6445.2,7212.2z"/>
	<path d="M7789.3,6949.4c21.1,0,42.2,0,63.3,0c3.2,0,6.4,0.1,9.6,0.3c1.3,0.1,2.4,0.9,2.8,2.2c0.5,1.5,0.9,3.1,1.1,4.6
		c4.4,27.8,8.9,55.6,13.2,83.4c4.1,26.2,8.1,52.4,12.2,78.7c4.1,26.2,8.4,52.4,12.6,78.6c4.2,26.5,8.2,53.1,12.4,79.6
		c4.1,26.2,8.4,52.4,12.6,78.6c4.1,26.2,8.2,52.4,12.3,78.7c4.1,25.9,8.3,51.8,12.4,77.7c2.3,14.2,4.4,28.4,6.7,42.6
		c2.2,13.9,4.4,27.8,6.7,41.7c0.3,1.6,0.6,3.1,0.7,4.7c0.3,3.5,0.1,5.3-4.6,5.3c-8,0.1-16,0.1-24,0.1c-21.8-0.1-43.5-0.2-65.3-0.3
		c-2.6,0-5.1-0.2-7.7-0.3c-1,0-2.6-1.4-2.8-2.4c-0.3-1.2-0.6-2.5-0.8-3.7c-1.9-13-3.9-25.9-5.8-38.9c-3.4-23.1-6.8-46.2-10.1-69.3
		c0-0.3-0.1-0.6-0.2-0.9c-0.3-1.6-1.7-3-3.2-3.1c-2.2-0.1-4.5-0.2-6.7-0.3c-8-0.1-16-0.1-24-0.1c-27.2-0.1-54.4-0.1-81.6-0.2
		c-2.2,0-4.5,0-6.7,0.1c-2.7,0.1-3.9,1.2-4.4,4.1c-1.1,6.9-2.2,13.9-3.3,20.8c-3.9,25.3-7.7,50.6-11.5,75.9
		c-0.8,5.1-1.6,10.1-2.4,15.1c-0.2,1.3-1.4,2.3-2.6,2.4c-1.6,0.1-3.2,0.3-4.8,0.3c-26.9,0-53.7-0.1-80.6-0.1c-1.6,0-3.2-0.1-4.8-0.2
		c-1.7-0.1-2.8-1.5-2.5-3.3c2-12.3,3.9-24.6,5.9-36.9c2.2-13.6,4.5-27.1,6.7-40.7c3.6-22.1,7.1-44.2,10.7-66.3
		c4.3-26.8,8.6-53.7,13-80.5c4-24.9,8.2-49.8,12.2-74.8c4.2-25.6,8.2-51.1,12.4-76.7c4.9-30.3,9.9-60.6,14.8-90.9
		c4.1-25.6,8.1-51.1,12.3-76.7c5.5-33.8,11-67.5,16.5-101.3c1.2-7.5,1.4-7.9,9-7.9c22.7,0,45.4,0,68.1,0
		C7789.3,6949.3,7789.3,6949.4,7789.3,6949.4z M7783.4,7396.9c0,0,0,0.1,0,0.1c1.3,0,2.6,0,3.8,0c12.8,0,25.6,0.1,38.4,0.1
		c1.6,0,3.2-0.3,4.7-0.7c0.5-0.1,1.1-0.9,1.1-1.4c0-2.2-0.1-4.4-0.4-6.6c-1.7-11.7-3.4-23.4-5.2-35.1c-1.4-9.8-2.9-19.6-4.3-29.4
		c-2.3-15.8-4.7-31.6-7-47.4c-2.1-14.2-4.2-28.5-6.3-42.7c-2.3-15.8-4.7-31.6-7.1-47.4c-1.6-10.8-3.1-21.5-4.7-32.3
		c-2.3-15.2-4.5-30.3-6.8-45.5c-1.5-10.1-3.1-20.2-4.6-30.3c0-0.2-0.4-0.6-0.5-0.6c-0.5,0.2-1.3,0.4-1.5,0.9c-0.5,1.2-0.8,2.4-1,3.7
		c-1.7,11.1-3.3,22.1-5,33.2c-3.4,22.1-6.8,44.2-10.2,66.3c-2.3,14.9-4.4,29.7-6.6,44.6c-4.1,27.2-8.4,54.3-12.5,81.5
		c-2.4,15.8-4.8,31.6-7.1,47.4c-1.9,12.6-3.8,25.3-5.6,37.9c-0.3,1.7,0.8,3.2,2.5,3.3c2.9,0.2,5.7,0.4,8.6,0.4
		C7758.5,7397,7770.9,7396.9,7783.4,7396.9z"/>
	<path d="M7290.3,7276.1c0-105.3,0-210.5,0-315.8c0-3.2,0.2-6.4,0.3-9.6c0-1,1.5-2.4,2.6-2.5c2.9-0.2,5.7-0.4,8.6-0.4
		c21.4,0,42.9,0,64.3,0.1c40.6,0.1,81.3,0.2,121.9,0.2c23.4,0,46.7,0,70.1,0.1c3.8,0,7.7,0.2,11.5,0.4c1.2,0.1,2.5,1.4,2.6,2.5
		c0.1,1.6,0.3,3.2,0.3,4.8c0,26.9-0.1,53.8-0.1,80.6c0,1.3-0.1,2.5-0.3,3.8c-0.1,1.1-1.3,2.3-2.6,2.4c-1.6,0.1-3.2,0.3-4.8,0.3
		c-6.7,0-13.4,0-20.2,0c-46.4-0.1-92.8-0.1-139.2-0.2c-11.8,0-11.1-1-11.2,10.6c-0.1,53.1-0.2,106.2-0.3,159.3c0,1.9,0,3.8,0,5.8
		c0.1,4.5,0.9,5.4,5.8,5.4c7,0.1,14.1,0.1,21.1,0.1c33.9,0.1,67.8,0.1,101.8,0.2c2.6,0,5.1,0,7.7,0.1c3.8,0.1,5.1,1.4,5.1,5.3
		c0,3.5,0,7,0,10.6c-0.1,22.4-0.1,44.8-0.2,67.2c0,2.9-0.1,5.7-0.3,8.6c-0.1,1.6-1.5,2.9-3.2,2.9c-3.2,0.1-6.4,0.1-9.6,0.1
		c-38.7,0-77.4-0.1-116.2-0.1c-3.2,0-6.4,0.1-9.6,0.3c-1.2,0-2.3,1.3-2.4,2.5c-0.1,2.2-0.2,4.5-0.2,6.7c-0.1,57-0.1,113.9-0.2,170.9
		c0,10.4-0.4,10,9.9,10c30.7,0.1,61.4,0.1,92.2,0.2c21.8,0.1,43.5,0.2,65.3,0.2c10.5,0,10.3,0.2,10.3,9.9c0,25.3-0.1,50.6-0.1,75.8
		c0,2.2-0.2,4.5-0.4,6.7c-0.1,1.2-1.4,2.4-2.5,2.5c-1,0.1-1.9,0.2-2.9,0.2c-1.9,0-3.8,0-5.8,0c-85.4-0.2-170.9-0.4-256.3-0.7
		c-3.8,0-7.7-0.3-11.5-0.5c-1.1-0.1-2.4-1.4-2.5-2.5c-0.2-1.9-0.3-3.8-0.3-5.7c0.1-34.9,0.3-69.8,0.4-104.6
		c0.1-16.6,0.1-33.3,0.2-49.9c0.1-55,0.3-110.1,0.4-165.1C7290.1,7276.1,7290.2,7276.1,7290.3,7276.1z"/>
	<path d="M8042,7804.9c-132.1,0-264.3,0-396.4,0c-3.5,0-7,0-10.6-0.1c-2.2-0.1-3.4-1.4-3.5-3.7c-0.1-2.2-0.1-4.5-0.1-6.7
		c0-26.9,0-53.8,0-80.6c0-2.6,0.2-5.1,0.3-7.6c0.1-1.2,1.3-2.4,2.5-2.5c1.3-0.1,2.5-0.2,3.8-0.2c3.2,0,6.4,0,9.6,0
		c228.1,0,456.3,0,684.4,0c13,0,13,0,24.8-5.5c28.1-13.2,56.2-26.4,84.2-39.6c2.9-1.4,5.8-2.7,8.7-4c1.5-0.7,3.1,0.5,3.2,2.4
		c0.1,1.3,0.1,2.6,0.1,3.8c0,22.7,0,45.4,0,68.1c0,12.2-0.5,24.3-0.5,36.5c0,9.6,0.4,19.2,0.5,28.8c0.1,12.1,0.3,11.1-10.8,11.2
		c-1.3,0-2.6,0-3.8,0C8306.3,7804.9,8174.1,7804.9,8042,7804.9C8042,7804.9,8042,7804.9,8042,7804.9z"/>
	<path d="M7243.1,7722.6c6.3,8.8,12.4,17.4,18.5,25.9c1.5,2.1,3.1,4,4.7,6c0.2,0.2,0.7,0.4,0.9,0.3c0.5-0.3,1.2-0.7,1.3-1.1
		c0.2-3.2,0.2-6.4,0.3-9.6c0.1-6.1,0-12.1,0.1-18.2c0-2.7,1.2-3.7,4.3-3.7c1,0,1.9,0,2.9,0.1c1.8,0.1,2.8,1.2,2.9,3.1
		c0.1,1.3,0.2,2.5,0.2,3.8c0,14.7,0,29.4,0,44.1c0,2.2,0.3,4.5-1.3,6.5c-3.1,0.7-6.2,0.9-9.7-0.3c-1.9-2.6-4.1-5.3-6.1-8.2
		c-6-8.2-12-16.5-18.1-24.8c-0.7-1-1.7-1.8-2.6-2.7c-0.2-0.1-0.6-0.1-0.9,0c-0.3,0.1-0.7,0.3-0.8,0.5c-0.2,1.6-0.4,3.2-0.4,4.7
		c0,7.7,0,15.3,0,23c0,1.9-0.1,3.8-0.4,5.7c-0.1,0.8-1,1.9-1.7,2c-2.2,0.3-4.4,0.2-6.6,0c-0.6-0.1-1.5-1.2-1.7-2
		c-0.4-1.2-0.3-2.5-0.3-3.8c0-15.3,0-30.7,0-46c0-1.3,0.1-2.6,0.4-3.8c0.2-0.9,0.8-1.7,1.9-1.8
		C7234.6,7722.1,7238.4,7722.1,7243.1,7722.6z"/>
	<path d="M7095.2,7752.2c0-7.7,0-15.4,0-23c0-1.6,0.1-3.2,0.5-4.7c0.2-0.7,1.2-1.4,2-1.8c0.8-0.4,1.9-0.4,2.8-0.4
		c10.6,0,21.1,0,31.7,0c1,0,2,0,2.8,0.4c0.8,0.3,1.7,0.9,1.7,2c0,1.3,0.2,2.5,0.2,3.8c0,3-1,4.1-4,4.1c-5.8,0.1-11.5,0.1-17.3,0.1
		c-1.9,0-3.8,0.1-5.7,0.4c-0.8,0.1-1.8,0.8-1.9,1.9c-0.2,1.6-0.4,3.2-0.4,4.7c0,5.1,0.2,6.1,6,6.1c5.1,0,10.2,0,15.4,0.1
		c0.9,0,1.9,0.2,2.8,0.6c0.5,0.2,1,0.8,1.3,1.3c1,2.5,0.8,5,0.1,7.5c-0.2,0.5-0.7,1.1-1.2,1.3c-0.9,0.3-1.8,0.5-2.8,0.5
		c-4.8,0.1-9.6,0-14.4,0.1c-1.6,0-3.2,0-4.8,0.3c-0.8,0.2-1.7,0.7-1.9,1.9c-0.5,2.9-0.7,5.7,0.2,8.5c0.2,0.5,0.7,1.1,1.2,1.3
		c1.2,0.4,2.5,0.6,3.7,0.6c6.7,0.1,13.4,0,20.2,0.1c6.4,0.1,7.2,1,6.7,7.3c-0.2,1.7-1.3,2.9-3.1,3c-1.6,0.1-3.2,0.1-4.8,0.1
		c-9.6,0-19.2,0-28.8,0c-1.9,0-3.8-0.2-5.7-0.4c-1.1-0.1-1.7-1-1.9-1.9c-0.3-1.5-0.4-3.2-0.4-4.8
		C7095.2,7766.2,7095.2,7759.2,7095.2,7752.2z"/>
	<path d="M7510.5,7763.2c0.8,0.9,1.3,1.4,1.5,2c2.8,5.8,7.9,7.2,13.6,6.7c2.2-0.2,4.3-1,6.4-1.8c0.8-0.3,1.5-1.1,2.1-1.8
		c2-2.3,1.8-5.9-0.7-7.6c-1.8-1.3-3.8-2.4-5.9-3.1c-3-1-6.2-1.6-9.2-2.5c-2.7-0.8-5.5-1.7-8.1-2.9c-12-5.5-11-20.5-2.1-26.6
		c4.6-3.2,9.9-4.6,15.4-4.4c3.5,0.1,7,0.7,10.3,1.8c5.8,1.9,9.8,5.8,11.4,11.9c0.2,0.9,0.2,1.9,0,2.8c-0.1,0.5-0.7,1.3-1.2,1.3
		c-3.2,0.5-6.3-0.4-9.3-1.5c-0.8-0.3-1.5-1.2-2-2c-1.3-1.9-2.9-3.3-5.3-3.9c-3.5-0.9-7-1-10.3,0.6c-1.1,0.5-2,1.6-2.7,2.6
		c-1.6,2.4-0.9,5.4,1.4,6.7c1.4,0.8,2.8,1.5,4.3,2c4.3,1.3,8.6,2.4,12.9,3.5c2.8,0.7,5.5,1.8,7.9,3.4c4.2,2.9,6.4,6.9,6.6,12.1
		c0.3,7.3-3.2,13.5-10.5,16.7c-8.6,3.7-17.4,3.7-26.1,0c-6.3-2.7-10.2-7.5-11.3-14.3c-0.3-1.7,1-3.2,2.7-3c0.3,0,0.6,0.1,0.9,0.1
		C7505.6,7762.4,7507.8,7762.8,7510.5,7763.2z"/>
	<path d="M6831.2,7751c0-7.3,0-14.7,0-22c0-1.6,0-3.2,0.4-4.7c0.2-0.7,1.2-1.5,2-1.7c1.2-0.4,2.5-0.3,3.8-0.4c9.9,0,19.8,0,29.7,0
		c1.3,0,2.5,0.2,3.8,0.4c0.6,0.1,1.3,0.6,1.5,1.1c1,2.4,1,4.9,0.1,7.3c-0.2,0.5-0.9,1-1.4,1.1c-1.2,0.3-2.5,0.5-3.8,0.5
		c-5.1,0.1-10.2,0-15.3,0.1c-1.9,0-3.8,0.1-5.7,0.3c-1.2,0.1-2.7,1.3-2.7,2.3c0,2.9,0,5.7,0.1,8.6c0,0.5,0.7,1.2,1.2,1.3
		c1.2,0.3,2.5,0.5,3.8,0.6c5.1,0.1,10.2,0,15.3,0.1c1.3,0,2.5,0.2,3.8,0.5c0.5,0.1,1.1,0.7,1.3,1.3c0.8,2.5,0.8,5,0.1,7.5
		c-0.2,0.7-1.3,1.6-2,1.7c-4.5,0.3-8.9,0.3-13.4,0.4c-2.9,0.1-5.7,0.2-8.6,0.4c-0.5,0-1.3,0.6-1.4,1.1c-0.9,3.1-1,6.3,0,9.4
		c0.2,0.5,0.8,1,1.4,1.2c1.2,0.3,2.5,0.5,3.8,0.5c5.7,0.1,11.5,0,17.2,0.1c2.2,0,4.5,0.2,6.7,0.3c1.3,0.1,2.5,1.2,2.5,2.4
		c0.1,1.6,0.1,3.2,0.1,4.8c-0.1,1.7-1.3,2.8-3.1,2.9c-1.3,0.1-2.5,0.1-3.8,0.1c-10.2,0-20.4,0-30.6,0c-0.3,0-0.6,0-1,0
		c-5.3,0-5.8-0.9-5.8-6.3c0-1.9,0-3.8,0-5.7C6831.2,7762.5,6831.2,7756.8,6831.2,7751C6831.2,7751,6831.2,7751,6831.2,7751z"/>
	<path d="M6992.1,7779.7c-1.4,0.2-2.6,0.6-3.9,0.6c-3.2,0-6.4,0.5-9.4-0.5c-0.5-0.6-1.1-0.9-1.3-1.5c-5.7-17.6-11.4-35.2-17.1-52.9
		c-0.2-0.6,0-1.3,0.1-2.1c3.3-1.2,6.8-1.1,10.2-0.4c0.8,0.2,1.7,1,2.1,1.8c1,2.4,1.7,4.8,2.5,7.2c2.7,8.5,5.4,17.1,8,25.6
		c0.4,1.3,1.1,2.2,2.9,2.1c1.3-3.8,2.7-7.7,3.9-11.6c2.2-6.7,4.2-13.4,6.4-20.1c0.4-1.2,0.8-2.5,1.5-3.5c0.5-0.7,1.4-1.6,2.2-1.6
		c2.8-0.1,5.7,0,8.6,0.1c0.7,0,1.5,1.4,1.3,2.2c-0.3,1.2-0.5,2.5-0.9,3.7c-5,15.2-9.9,30.4-15,45.5
		C6993.7,7776.1,6992.8,7777.8,6992.1,7779.7z"/>
	<path d="M7384.5,7756.7c0-5.4,0-10.8,0-16.2c0-1.6-0.1-3.2-0.2-4.8c-0.1-1.1-1.3-2.4-2.5-2.4c-2.9-0.2-5.7-0.2-8.6-0.4
		c-1.6-0.1-3.2-0.2-4.7-0.5c-0.5-0.1-1.2-0.7-1.4-1.2c-0.9-2.5-0.9-5,0.1-7.4c0.2-0.5,0.9-0.9,1.5-1.1c0.6-0.2,1.3-0.3,1.9-0.3
		c13.4,0,26.8,0,40.1,0c0.9,0,1.9,0.1,2.8,0.4c0.5,0.2,1.3,0.8,1.3,1.2c0.2,2.2,0.3,4.4,0.1,6.6c-0.1,0.7-1,1.5-1.8,1.9
		c-0.8,0.4-1.8,0.4-2.8,0.4c-2.2,0.1-4.5,0.1-6.7,0.1c-5.2,0.1-6.3,0.5-6.3,5.9c0,2.2,0,4.5,0,6.7c0,8,0,15.9,0,23.9
		c0,2.2,0,4.5-0.1,6.7c-0.1,2.8-1.3,4-4.2,4c-2.2,0-4.4-0.2-6.6-0.4c-0.5-0.1-1.1-0.7-1.3-1.2c-0.3-1.2-0.6-2.5-0.6-3.7
		C7384.5,7768.8,7384.5,7762.8,7384.5,7756.7C7384.5,7756.7,7384.5,7756.7,7384.5,7756.7z"/>
	<path class="st0" d="M7018,7142.2c0-29.7,0-59.5,0-89.2c0-2.6,0.1-5.1,0.3-7.7c0.1-1.2,1.3-2.4,2.5-2.5c0.6-0.1,1.3-0.2,1.9-0.2
		c16,0,32,0,47.9,0.1c5.1,0,10.2,1,15.1,2.3c11,3,19.4,9.5,24.7,19.7c2.2,4.3,3.9,8.7,5.1,13.4c2.2,8.7,2.9,17.6,3.3,26.6
		c0.2,4.8,0.2,9.6,0.2,14.4c0,16.6,0,33.2-0.1,49.9c-0.1,6.4-0.4,12.8-0.8,19.2c-0.5,7-1.9,13.9-4.2,20.6c-1.6,4.9-3.8,9.5-6.8,13.7
		c-5.3,7.5-12.4,12.8-21,16c-5.1,1.9-10.4,3.2-15.8,3.7c-3.5,0.3-7,0.6-10.5,0.6c-12.1,0.1-24.3,0-36.4,0c-1.3,0-2.6-0.2-3.8-0.5
		c-0.5-0.1-1.1-0.8-1.3-1.3c-0.3-0.9-0.4-1.9-0.4-2.8c-0.1-3.2-0.1-6.4-0.1-9.6c0-28.8,0-57.5,0-86.3
		C7017.8,7142.2,7017.9,7142.2,7018,7142.2z"/>
	<path class="st0" d="M7783.4,7396.9c-12.5,0-24.9,0-37.4,0c-2.9,0-5.7-0.2-8.6-0.4c-1.7-0.1-2.8-1.6-2.5-3.3
		c1.9-12.6,3.8-25.3,5.6-37.9c2.4-15.8,4.7-31.6,7.1-47.4c4.2-27.2,8.4-54.3,12.5-81.5c2.3-14.8,4.4-29.7,6.6-44.6
		c3.4-22.1,6.8-44.2,10.2-66.3c1.7-11.1,3.3-22.1,5-33.2c0.2-1.2,0.5-2.5,1-3.7c0.2-0.4,1-0.6,1.5-0.9c0.1,0,0.5,0.4,0.5,0.6
		c1.6,10.1,3.1,20.2,4.6,30.3c2.3,15.2,4.6,30.3,6.8,45.5c1.6,10.8,3.1,21.5,4.7,32.3c2.3,15.8,4.7,31.6,7.1,47.4
		c2.1,14.2,4.2,28.5,6.3,42.7c2.3,15.8,4.7,31.6,7,47.4c1.5,9.8,2.9,19.6,4.3,29.4c1.7,11.7,3.5,23.4,5.2,35.1
		c0.3,2.2,0.4,4.4,0.4,6.6c0,0.5-0.6,1.2-1.1,1.4c-1.5,0.4-3.1,0.7-4.7,0.7c-12.8,0-25.6,0-38.4-0.1c-1.3,0-2.6,0-3.8,0
		C7783.4,7397,7783.4,7397,7783.4,7396.9z"/>
</g>
</svg>
